# Blender 3.5.0
# www.blender.org
mtllib Column.mtl
o Test
v -0.959518 -0.077650 0.394997
v -0.956642 -0.074962 0.392121
v -0.956642 -0.076979 0.017357
v -0.950149 -0.074962 0.017357
v -0.581878 -0.076979 0.392121
v -0.581878 -0.074962 0.385628
v -0.956642 -0.001983 0.392121
v -1.004388 0.006126 0.439867
v -0.581878 -0.001983 0.385628
v -0.581878 0.006126 0.453152
v -0.998503 0.102623 0.433982
v -0.859583 0.107101 0.329776
v -0.880937 0.106090 0.316416
v -0.899333 0.103431 0.334812
v -0.894296 0.107101 0.260349
v -0.899333 0.103998 0.260349
v -0.894296 0.107101 0.017357
v -0.899333 0.103998 0.017357
v -0.912618 0.103431 0.017357
v -0.824870 0.107101 0.329776
v -0.824870 0.103998 0.334812
v -0.581878 0.103998 0.439867
v -0.581878 0.107101 0.329776
v -0.581878 0.103998 0.334812
v -0.581878 0.103431 0.348097
v -0.893448 0.301237 0.328927
v -0.581878 0.302612 0.334812
v -0.824870 0.305715 0.225636
v -0.790157 0.305715 0.260349
v -0.799053 0.304704 0.234532
v -0.824870 0.305715 0.190923
v -0.817449 0.302612 0.190923
v -0.755444 0.305715 0.260349
v -0.755444 0.302612 0.252928
v -0.817449 0.306151 0.252928
v -0.830733 0.306151 0.190923
v -0.755444 0.306151 0.266212
v -0.824870 0.305715 0.017357
v -0.817449 0.302612 0.017357
v -0.830733 0.306151 0.017357
v -0.581878 0.305715 0.260349
v -0.581878 0.302612 0.252928
v -0.581878 0.306151 0.266212
v -0.814791 1.287316 0.017357
v -0.817385 1.295425 0.017357
v -0.809209 1.793196 0.244688
v -0.814565 1.794447 0.017357
v -0.581878 1.794447 0.250044
v -0.581878 1.797271 0.017357
v -0.971547 -0.080460 -0.407018
v -0.581878 -0.080420 -0.406845
v -0.971374 -0.001983 -0.406845
v -0.988452 0.006126 -0.423922
v -0.581878 -0.001983 -0.406454
v -0.581878 0.006126 -0.430606
v -0.894296 0.101837 -0.017357
v -0.883397 0.100275 -0.017357
v -0.890080 0.103431 -0.017357
v -0.985491 0.099584 -0.420962
v -0.874142 0.101328 -0.309612
v -0.883397 0.103431 -0.318867
v -0.880436 0.298198 -0.315906
v -0.824870 0.300451 -0.017357
v -0.801512 0.298890 -0.017357
v -0.792257 0.299942 -0.227728
v -0.581878 0.638612 -0.247458
v -0.779383 1.295425 -0.017357
v -0.815303 1.287316 -0.250774
v -0.781139 1.295425 -0.216609
v -0.581878 1.295425 -0.214854
v -0.779383 1.611668 -0.017357
v -0.803145 1.619777 -0.017357
v -0.781139 1.611668 -0.216609
v -0.797941 1.619777 -0.233411
v -0.581878 1.611668 -0.214854
v -0.581878 1.619777 -0.238615
v -0.797941 1.790564 -0.017357
v -0.795635 1.790025 -0.231106
v -0.581878 1.791779 -0.017357
v -0.547164 -0.082504 0.415777
v -0.547164 -0.083277 0.017357
v -0.150217 -0.082162 0.414312
v -0.148753 -0.082504 0.017357
v -0.547164 -0.001983 0.419083
v -0.547164 0.006126 0.423014
v -0.145447 -0.001983 0.017357
v -0.141516 0.006126 0.017357
v -0.547164 0.099020 0.418557
v -0.547164 0.100061 0.329776
v -0.547164 0.099020 0.313502
v -0.547164 0.103431 0.317959
v -0.257200 0.099722 0.307329
v -0.147948 0.098559 0.416582
v -0.547164 0.297634 0.313502
v -0.547164 0.297634 0.231617
v -0.339085 0.298336 0.225445
v -0.253003 0.297173 0.311527
v -0.335491 0.638612 0.017357
v -0.547164 1.287316 0.235179
v -0.547164 1.295425 0.210629
v -0.333546 1.287316 0.230984
v -0.350905 1.295425 0.213624
v -0.329351 1.287316 0.017357
v -0.353901 1.295425 0.017357
v -0.547164 1.611668 0.210629
v -0.547164 1.619777 0.235797
v -0.350905 1.611668 0.213624
v -0.333108 1.619777 0.231421
v -0.328732 1.619777 0.190923
v -0.353901 1.611668 0.017357
v -0.328732 1.619777 0.017357
v -0.547164 1.790097 0.231421
v -0.335047 1.789644 0.229482
v -0.547164 -0.094264 -0.017357
v -0.547164 -0.090273 -0.449027
v -0.115494 -0.090273 -0.017357
v -0.123062 -0.088506 -0.441459
v -0.547164 -0.001983 -0.466109
v -0.547164 0.006126 -0.412955
v -0.098412 -0.001983 -0.017357
v -0.115494 -0.001983 -0.449027
v -0.153079 0.006126 -0.411442
v -0.260231 0.097598 -0.304290
v -0.153750 0.097203 -0.410771
v -0.342115 0.296212 -0.222406
v -0.258805 0.295817 -0.305716
v -0.547164 0.638612 -0.245544
v -0.547164 0.646721 -0.273542
v -0.318977 0.638612 -0.017357
v -0.290979 0.646721 -0.017357
v -0.326211 0.638612 -0.238310
v -0.306413 0.646721 -0.258108
v -0.547164 0.971073 -0.268433
v -0.547164 1.295425 -0.245345
v -0.296088 1.287316 -0.017357
v -0.319176 1.295425 -0.017357
v -0.310025 1.287316 -0.254496
v -0.326351 1.295425 -0.238170
v -0.547164 1.619777 -0.236122
v -0.328399 1.619777 -0.017357
v -0.547164 1.791197 -0.017357
v -0.334855 1.789689 -0.229666
vn -0.4499 0.8931 -0.0048
vn -0.0000 0.9226 -0.3858
vn 0.0148 0.0186 0.9997
vn 0.9998 0.0186 -0.0017
vn -0.0229 0.0988 0.9948
vn 0.5245 -0.8514 -0.0000
vn -0.0000 -0.8514 -0.5245
vn 0.1659 0.6461 -0.7450
vn 0.5194 -0.8431 -0.1390
vn 0.0589 0.9887 -0.1381
vn 0.1381 0.9887 -0.0588
vn -0.0090 0.9999 0.0090
vn -0.2574 -0.9663 -0.0000
vn -0.0000 -0.9663 0.2574
vn -0.0305 0.0487 0.9983
vn -0.0017 -0.9897 0.1431
vn 0.0288 -0.1408 -0.9896
vn 0.0088 -0.0000 -1.0000
vn -0.5915 -0.0554 -0.8044
vn -0.0017 -1.0000 0.0039
vn -0.0403 0.0117 0.9991
vn 0.9896 -0.1408 -0.0288
vn -0.9977 -0.0656 0.0190
vn 0.1766 0.9841 0.0205
vn 0.1849 0.9828 -0.0000
vn -0.0042 1.0000 0.0003
vn -0.0899 -0.9919 0.0899
vn 0.6477 -0.0782 0.7579
vn -0.2441 0.9696 -0.0174
vn 0.1997 0.9798 0.0041
vn 0.9981 0.0070 -0.0613
vn -0.0031 -0.9290 -0.3701
vn 0.0467 -0.9978 -0.0467
vn 0.0097 -0.0140 0.9999
vn -0.6725 0.0152 0.7400
vn -0.9993 0.0315 -0.0224
vn -0.0029 -0.9310 -0.3650
vn 0.5972 0.0743 0.7987
vn 0.0068 -1.0000 -0.0068
vn 0.3279 -0.9447 0.0011
vn 0.0197 -0.0192 -0.9996
vn 0.0216 -0.0107 0.9997
vn -1.0000 -0.0000 0.0088
vn 0.3858 0.9226 -0.0000
vn 0.0246 -0.0047 0.9997
vn 0.0011 0.9328 0.3605
vn 0.0012 -0.9357 0.3527
vn 0.0025 1.0000 -0.0023
vn 0.0155 -0.9488 -0.3155
vn 0.0039 0.9847 -0.1744
vn 0.0007 0.0036 -1.0000
vn 0.0136 0.0439 -0.9989
vn -0.0081 -0.0151 -0.9999
vn 0.3155 -0.9488 -0.0155
vn 0.9997 -0.0214 0.0112
vn -0.0153 -0.0000 0.9999
vn -0.2428 -0.9701 -0.0002
vn 0.0048 0.8931 0.4499
vn 0.9999 -0.0142 -0.0071
vn 0.0055 -0.9647 0.2633
vn 0.9999 -0.0000 -0.0153
vn 0.0173 -0.0000 0.9998
vn 0.9996 0.0276 -0.0109
vn 0.0865 -0.9737 0.2110
vn 0.0561 0.9367 -0.3455
vn -0.9999 -0.0004 -0.0136
vn 0.6495 0.0008 0.7604
vn 0.5967 0.0362 0.8017
vn 0.0014 -1.0000 0.0014
vn -0.2832 0.8371 -0.4681
vn -0.9988 0.0463 -0.0169
vn -0.3701 -0.9290 -0.0031
vn -0.0086 0.9453 -0.3260
vn -0.1286 -0.9915 -0.0181
vn 0.6221 0.7819 0.0416
vn 0.1492 0.9844 -0.0932
vn 0.1455 0.9894 -0.0030
vn -0.0061 1.0000 0.0007
vn -0.9996 0.0221 -0.0175
vn -0.8275 -0.0559 -0.5587
vn 0.3605 0.9328 0.0011
vn -0.0089 0.9907 -0.1359
vn 0.0129 0.0263 -0.9996
vn -0.7667 -0.0121 -0.6419
vn 0.3743 0.9271 -0.0173
vn 0.6966 0.0009 0.7174
vn -0.5932 -0.0180 -0.8049
vn -0.2536 -0.9673 0.0065
s 0
usemtl Material
f 4//1 3//1 1//1 2//1
f 42//2 34//2 33//2 41//2
f 108//3 113//3 112//3 106//3
f 93//4 82//4 83//4 86//4 87//4 122//4 124//4
f 11//5 8//5 10//5 22//5
f 16//6 18//6 17//6 15//6
f 21//7 20//7 23//7 24//7
f 20//8 21//8 13//8 12//8
f 13//9 16//9 15//9
f 33//10 34//10 30//10 29//10
f 30//11 32//11 31//11 28//11
f 47//12 46//12 48//12 49//12
f 40//13 39//13 32//13 36//13
f 34//14 42//14 43//14 37//14
f 27//15 26//15 14//15 25//15
f 9//16 84//16 85//16 10//16 8//16 7//16
f 121//17 117//17 115//17 118//17
f 73//18 75//18 70//18 69//18
f 133//19 128//19 127//19 66//19
f 51//20 5//20 1//20 3//20 50//20
f 43//21 48//21 46//21 35//21 37//21
f 121//22 120//22 116//22 117//22
f 52//23 50//23 3//23 4//23 2//23 7//23
f 88//24 89//24 23//24 22//24
f 94//25 95//25 42//25 41//25 27//25
f 59//26 11//26 22//26 23//26 20//26 12//26 13//26 15//26 17//26 56//26 57//26 60//26 123//26 92//26 90//26 89//26 88//26 93//26 124//26
f 30//27 34//27 37//27 35//27 36//27 32//27
f 116//28 120//28 86//28 83//28
f 67//29 69//29 68//29 44//29 45//29
f 122//30 87//30 86//30 120//30 121//30
f 135//31 130//31 132//31 137//31
f 74//32 76//32 75//32 73//32
f 14//33 19//33 18//33 16//33 13//33 21//33 24//33 25//33
f 84//34 80//34 82//34 93//34 88//34 85//34
f 80//35 84//35 9//35 6//35 5//35
f 61//36 60//36 57//36 58//36 19//36 14//36 26//36 62//36
f 55//37 54//37 52//37 53//37
f 10//38 85//38 88//38 22//38
f 115//39 117//39 116//39 114//39
f 109//40 108//40 107//40 110//40 111//40
f 60//41 61//41 62//41 126//41 123//41
f 90//42 92//42 97//42 94//42 91//42
f 73//43 69//43 67//43 71//43
f 32//44 39//44 38//44 31//44
f 101//45 99//45 95//45 96//45
f 99//46 101//46 102//46 100//46
f 105//47 107//47 108//47 106//47
f 113//48 142//48 78//48 77//48 79//48 141//48 112//48
f 128//49 132//49 131//49 127//49
f 119//50 122//50 121//50 118//50
f 54//51 51//51 50//51 52//51
f 119//52 55//52 53//52 59//52 124//52 122//52
f 125//53 65//53 68//53 137//53 132//53 128//53 133//53 66//53 127//53 131//53
f 132//54 130//54 129//54 131//54
f 98//55 103//55 101//55 96//55 125//55 131//55 129//55
f 107//56 105//56 100//56 102//56
f 8//57 53//57 52//57 7//57
f 1//58 5//58 6//58 2//58
f 97//59 92//59 123//59 126//59
f 114//60 116//60 83//60 81//60
f 102//61 104//61 110//61 107//61
f 2//62 6//62 9//62 7//62
f 140//63 136//63 138//63 142//63 113//63 108//63 109//63 111//63
f 24//64 90//64 91//64 25//64
f 89//65 90//65 24//65 23//65
f 68//66 65//66 64//66 39//66 40//66 36//66 35//66 46//66 47//66 45//66 44//66
f 95//67 99//67 100//67 105//67 106//67 112//67 48//67 43//67 42//67
f 91//68 94//68 27//68 25//68
f 83//69 82//69 80//69 81//69
f 55//70 119//70 118//70 54//70
f 11//71 59//71 53//71 8//71
f 72//72 74//72 73//72 71//72
f 69//73 70//73 134//73 138//73 137//73 68//73
f 18//74 19//74 58//74 57//74
f 18//75 57//75 56//75 17//75
f 39//76 64//76 63//76 38//76
f 112//77 141//77 79//77 49//77 48//77
f 97//78 126//78 62//78 26//78 27//78 41//78 33//78 29//78 30//78 28//78 31//78 38//78 63//78 64//78 65//78 125//78 96//78 95//78 94//78
f 72//79 77//79 78//79 74//79
f 115//80 51//80 54//80 118//80
f 104//81 102//81 101//81 103//81
f 79//82 77//82 47//82 49//82
f 78//83 142//83 138//83 134//83 139//83 76//83 74//83
f 47//84 77//84 72//84 71//84 67//84 45//84
f 138//85 136//85 135//85 137//85
f 140//86 111//86 110//86 104//86 103//86 98//86 129//86 130//86 135//86 136//86
f 139//87 134//87 70//87 75//87 76//87
f 51//88 115//88 114//88 81//88 80//88 5//88
