# Blender 3.5.0
# www.blender.org
mtllib tree_clump2.mtl
o Cube.001
v -1.865465 4.615220 -5.331771
v -1.865465 7.566194 -5.331771
v -1.865465 4.615220 -9.062700
v -1.865465 7.566194 -9.062700
v 1.865465 4.615220 -5.331771
v 1.865465 7.566194 -5.331771
v 1.865465 4.615220 -9.062700
v 1.865465 7.566194 -9.062700
v -2.177384 4.368508 -8.175947
v -2.284719 4.283612 -7.197236
v -2.177384 4.368508 -6.218524
v -2.177384 5.316597 -5.019852
v -2.284718 6.090707 -4.912518
v -2.177384 6.864818 -5.019852
v -2.177384 7.812906 -6.218524
v -2.284719 7.897802 -7.197236
v -2.177384 7.812906 -8.175947
v -2.177384 6.864818 -9.374619
v -2.284719 6.090707 -9.481954
v -2.177384 5.316597 -9.374619
v 0.978712 4.368508 -9.374619
v 0.000000 4.283612 -9.481955
v -0.978712 4.368508 -9.374619
v -0.978712 7.812906 -9.374619
v 0.000000 7.897802 -9.481954
v 0.978712 7.812906 -9.374619
v 2.177384 6.864818 -9.374619
v 2.284719 6.090707 -9.481954
v 2.177384 5.316597 -9.374619
v 2.177384 4.368508 -6.218524
v 2.284719 4.283612 -7.197236
v 2.177384 4.368508 -8.175947
v 2.177384 7.812906 -8.175947
v 2.284719 7.897802 -7.197236
v 2.177384 7.812906 -6.218524
v 2.177384 6.864818 -5.019852
v 2.284718 6.090707 -4.912518
v 2.177384 5.316597 -5.019852
v -0.978712 4.368508 -5.019852
v 0.000000 4.283612 -4.912518
v 0.978712 4.368508 -5.019852
v 0.978712 7.812906 -5.019852
v 0.000000 7.897802 -4.912518
v -0.978712 7.812906 -5.019852
v 1.254503 8.249180 -8.362644
v 1.350653 8.401279 -7.197236
v 1.254503 8.249180 -6.031828
v 0.000000 8.451790 -8.433716
v 0.000000 8.646325 -7.197236
v 0.000000 8.451791 -5.960755
v -1.254503 8.249180 -8.362644
v -1.350653 8.401279 -7.197236
v -1.254503 8.249180 -6.031828
v -1.254503 3.932234 -8.362644
v -1.350654 3.780135 -7.197236
v -1.254503 3.932235 -6.031827
v 0.000000 3.729624 -8.433717
v 0.000000 3.535089 -7.197236
v 0.000000 3.729624 -5.960755
v 1.254503 3.932234 -8.362644
v 1.350654 3.780135 -7.197236
v 1.254503 3.932235 -6.031827
v 1.165408 5.098459 -4.468269
v 0.000000 5.022409 -4.275969
v -1.165408 5.098459 -4.468269
v 1.236480 6.090707 -4.212108
v 0.000000 6.090707 -3.966157
v -1.236480 6.090707 -4.212108
v 1.165408 7.082954 -4.468268
v 0.000000 7.159005 -4.275969
v -1.165408 7.082954 -4.468268
v 2.728966 5.098459 -8.362643
v 2.921267 5.022410 -7.197236
v 2.728966 5.098459 -6.031828
v 2.985128 6.090707 -8.433716
v 3.231080 6.090707 -7.197236
v 2.985128 6.090707 -5.960755
v 2.728966 7.082954 -8.362643
v 2.921267 7.159004 -7.197236
v 2.728967 7.082954 -6.031827
v -1.165408 5.098460 -9.926201
v 0.000000 5.022410 -10.118502
v 1.165408 5.098460 -9.926201
v -1.236481 6.090707 -10.182364
v 0.000000 6.090707 -10.428315
v 1.236481 6.090707 -10.182364
v -1.165408 7.082954 -9.926201
v 0.000000 7.159005 -10.118502
v 1.165408 7.082954 -9.926201
v -2.728966 5.098459 -6.031828
v -2.921267 5.022410 -7.197236
v -2.728966 5.098459 -8.362643
v -2.985128 6.090707 -5.960755
v -3.231080 6.090707 -7.197236
v -2.985128 6.090707 -8.433716
v -2.728967 7.082954 -6.031827
v -2.921267 7.159004 -7.197236
v -2.728966 7.082954 -8.362643
vn -0.6856 0.5709 -0.4516
vn 0.4516 0.5709 -0.6856
vn 0.6856 0.5709 0.4516
vn -0.4516 0.5709 0.6856
vn 0.4194 -0.8051 0.4194
vn -0.4194 0.8051 0.4194
vn 0.4194 0.8051 0.4194
vn 0.1492 0.8833 0.4445
vn -0.1492 0.8833 0.4445
vn 0.4194 0.8051 -0.4194
vn 0.4583 0.8776 -0.1405
vn 0.4583 0.8776 0.1405
vn 0.1492 0.8833 -0.4445
vn 0.1714 0.9741 -0.1474
vn 0.1714 0.9741 0.1474
vn -0.1492 0.8833 -0.4445
vn -0.1714 0.9741 -0.1474
vn -0.1714 0.9741 0.1474
vn -0.4194 0.8051 -0.4194
vn -0.4583 0.8776 -0.1405
vn -0.4583 0.8776 0.1405
vn -0.4194 -0.8051 0.4194
vn -0.1492 -0.8833 0.4445
vn 0.1492 -0.8833 0.4445
vn -0.4194 -0.8051 -0.4194
vn -0.4583 -0.8776 -0.1405
vn -0.4583 -0.8776 0.1405
vn -0.1492 -0.8833 -0.4445
vn -0.1714 -0.9741 -0.1474
vn -0.1714 -0.9741 0.1474
vn 0.1492 -0.8833 -0.4445
vn 0.1714 -0.9741 -0.1474
vn 0.1714 -0.9741 0.1474
vn 0.4194 -0.8051 -0.4194
vn 0.4583 -0.8776 -0.1405
vn 0.4583 -0.8776 0.1405
vn -0.4516 -0.5709 0.6856
vn -0.5234 -0.2221 0.8226
vn -0.5234 0.2221 0.8226
vn 0.4516 -0.5709 0.6856
vn 0.1535 -0.6332 0.7586
vn -0.1535 -0.6332 0.7586
vn 0.5234 -0.2221 0.8226
vn 0.1812 -0.2663 0.9467
vn -0.1812 -0.2663 0.9467
vn 0.5234 0.2221 0.8226
vn 0.1812 0.2663 0.9467
vn -0.1812 0.2663 0.9467
vn 0.4516 0.5709 0.6856
vn 0.1535 0.6332 0.7586
vn -0.1535 0.6332 0.7586
vn 0.6856 -0.5709 0.4516
vn 0.8226 -0.2221 0.5234
vn 0.8226 0.2221 0.5234
vn 0.6856 -0.5709 -0.4516
vn 0.7586 -0.6332 -0.1535
vn 0.7586 -0.6332 0.1535
vn 0.8226 -0.2222 -0.5234
vn 0.9467 -0.2663 -0.1812
vn 0.9467 -0.2663 0.1812
vn 0.8226 0.2222 -0.5234
vn 0.9467 0.2663 -0.1812
vn 0.9467 0.2663 0.1812
vn 0.6856 0.5709 -0.4516
vn 0.7586 0.6332 -0.1535
vn 0.7586 0.6332 0.1535
vn 0.4516 -0.5709 -0.6856
vn 0.5234 -0.2222 -0.8226
vn 0.5234 0.2222 -0.8226
vn -0.4516 -0.5709 -0.6856
vn -0.1535 -0.6332 -0.7586
vn 0.1535 -0.6332 -0.7586
vn -0.5234 -0.2222 -0.8226
vn -0.1812 -0.2663 -0.9467
vn 0.1812 -0.2663 -0.9467
vn -0.5234 0.2222 -0.8226
vn -0.1812 0.2663 -0.9467
vn 0.1812 0.2663 -0.9467
vn -0.4516 0.5709 -0.6856
vn -0.1535 0.6332 -0.7586
vn 0.1535 0.6332 -0.7586
vn -0.6856 -0.5709 -0.4516
vn -0.8226 -0.2222 -0.5234
vn -0.8226 0.2222 -0.5234
vn -0.6856 -0.5709 0.4516
vn -0.7586 -0.6332 0.1535
vn -0.7586 -0.6332 -0.1535
vn -0.8226 -0.2221 0.5234
vn -0.9467 -0.2663 0.1812
vn -0.9467 -0.2663 -0.1812
vn -0.8226 0.2221 0.5234
vn -0.9467 0.2663 0.1812
vn -0.9467 0.2663 -0.1812
vn -0.6856 0.5709 0.4516
vn -0.7586 0.6332 0.1535
vn -0.7586 0.6332 -0.1535
vt 0.000000 1.000000
vt 0.000000 0.000000
vt 1.000000 1.000000
vt 1.000000 0.000000
vt 0.000000 0.000000
vt 0.000000 1.000000
vt 1.000000 1.000000
vt 1.000000 0.000000
vt 1.000000 1.000000
vt 0.000000 0.000000
vt 0.000000 1.000000
vt 1.000000 1.000000
vt 0.000000 1.000000
vt 1.000000 0.000000
vt 1.000000 0.000000
vt 0.000000 0.000000
vt 0.000000 1.000000
vt 1.000000 1.000000
vt 0.000000 0.000000
vt 1.000000 0.000000
vt 0.000000 0.000000
vt 0.000000 1.000000
vt 0.000000 1.000000
vt 0.000000 0.000000
vt 0.000000 1.000000
vt 0.000000 0.000000
vt 1.000000 1.000000
vt 0.000000 1.000000
vt 1.000000 0.000000
vt 0.000000 0.000000
vt 1.000000 1.000000
vt 0.000000 1.000000
vt 1.000000 0.000000
vt 0.000000 0.000000
vt 0.000000 1.000000
vt 1.000000 1.000000
vt 1.000000 0.000000
vt 0.000000 0.000000
vt 1.000000 1.000000
vt 1.000000 0.000000
vt 1.000000 1.000000
vt 1.000000 0.000000
vt 1.000000 0.000000
vt 1.000000 1.000000
vt 0.000000 1.000000
vt 1.000000 0.000000
vt 0.000000 0.000000
vt 1.000000 1.000000
vt 1.000000 0.000000
vt 0.000000 0.000000
vt 1.000000 1.000000
vt 0.000000 1.000000
vt 1.000000 0.000000
vt 0.000000 0.000000
vt 1.000000 1.000000
vt 0.000000 1.000000
vt 1.000000 0.000000
vt 0.000000 0.000000
vt 0.000000 1.000000
vt 1.000000 0.000000
vt 0.000000 1.000000
vt 0.000000 0.000000
vt 1.000000 0.000000
vt 0.000000 1.000000
vt 0.000000 0.000000
vt 0.000000 0.000000
vt 1.000000 1.000000
vt 1.000000 0.000000
vt 0.000000 0.000000
vt 1.000000 1.000000
vt 1.000000 0.000000
vt 1.000000 0.000000
vt 0.000000 0.000000
vt 1.000000 1.000000
vt 0.000000 1.000000
vt 1.000000 0.000000
vt 0.000000 0.000000
vt 1.000000 1.000000
vt 1.000000 0.000000
vt 0.000000 0.000000
vt 1.000000 1.000000
vt 0.000000 1.000000
vt 1.000000 0.000000
vt 0.000000 0.000000
vt 1.000000 1.000000
vt 0.000000 1.000000
vt 1.000000 0.000000
vt 1.000000 1.000000
vt 0.000000 0.000000
vt 0.000000 1.000000
vt 1.000000 1.000000
vt 1.000000 0.000000
vt 0.000000 1.000000
vt 0.000000 0.000000
vt 1.000000 1.000000
vt 1.000000 0.000000
vt 0.000000 1.000000
vt 0.000000 0.000000
vt 0.000000 1.000000
vt 0.000000 0.000000
vt 1.000000 1.000000
vt 1.000000 0.000000
vt 0.000000 1.000000
vt 0.000000 0.000000
vt 1.000000 1.000000
vt 1.000000 0.000000
vt 1.000000 0.000000
vt 0.000000 0.000000
vt 0.000000 1.000000
vt 1.000000 1.000000
vt 0.000000 1.000000
vt 1.000000 0.000000
vt 0.000000 0.000000
vt 1.000000 1.000000
vt 1.000000 0.000000
vt 0.000000 0.000000
vt 1.000000 1.000000
vt 0.000000 1.000000
vt 1.000000 0.000000
vt 0.000000 0.000000
vt 1.000000 1.000000
vt 0.000000 1.000000
vt 1.000000 1.000000
vt 0.000000 0.000000
vt 0.000000 1.000000
vt 1.000000 1.000000
vt 0.000000 1.000000
vt 0.000000 0.000000
vt 1.000000 1.000000
vt 0.000000 1.000000
vt 0.000000 0.000000
vt 0.000000 1.000000
vt 1.000000 1.000000
vt 1.000000 0.000000
vt 0.000000 1.000000
vt 1.000000 1.000000
vt 1.000000 0.000000
vt 1.000000 0.000000
vt 0.000000 1.000000
vt 1.000000 1.000000
vt 1.000000 1.000000
vt 1.000000 0.000000
vt 0.000000 1.000000
vt 0.000000 0.000000
vt 1.000000 1.000000
vt 1.000000 0.000000
vt 0.000000 1.000000
vt 0.000000 0.000000
vt 1.000000 0.000000
vt 0.000000 0.000000
vt 1.000000 1.000000
vt 0.000000 1.000000
vt 1.000000 1.000000
vt 1.000000 0.000000
vt 0.000000 1.000000
vt 0.000000 0.000000
vt 1.000000 1.000000
vt 1.000000 0.000000
vt 0.000000 1.000000
vt 0.000000 0.000000
vt 1.000000 0.000000
vt 0.000000 0.000000
vt 1.000000 1.000000
vt 0.000000 1.000000
vt 1.000000 1.000000
vt 1.000000 0.000000
vt 0.000000 1.000000
vt 0.000000 0.000000
vt 1.000000 1.000000
vt 1.000000 0.000000
vt 0.000000 1.000000
vt 0.000000 0.000000
vt 0.000000 0.000000
vt 1.000000 0.000000
vt 1.000000 1.000000
vt 0.000000 1.000000
vt 1.000000 1.000000
vt 1.000000 0.000000
vt 0.000000 1.000000
vt 0.000000 0.000000
vt 1.000000 1.000000
vt 1.000000 0.000000
vt 0.000000 1.000000
vt 0.000000 0.000000
vt 1.000000 0.000000
vt 0.000000 0.000000
vt 1.000000 1.000000
vt 0.000000 1.000000
vt 1.000000 1.000000
vt 1.000000 0.000000
vt 0.000000 1.000000
vt 0.000000 0.000000
vt 1.000000 1.000000
vt 1.000000 0.000000
vt 0.000000 1.000000
vt 0.000000 0.000000
vt 1.000000 0.000000
vt 0.000000 0.000000
vt 1.000000 1.000000
vt 0.000000 1.000000
vt 1.000000 1.000000
vt 1.000000 0.000000
vt 0.000000 1.000000
vt 0.000000 0.000000
vt 1.000000 1.000000
vt 1.000000 0.000000
vt 0.000000 1.000000
vt 0.000000 0.000000
vt 0.000000 0.000000
vt 1.000000 0.000000
vt 1.000000 1.000000
vt 0.000000 1.000000
vt 1.000000 1.000000
vt 1.000000 0.000000
vt 0.000000 1.000000
vt 0.000000 0.000000
vt 1.000000 1.000000
vt 1.000000 0.000000
vt 0.000000 1.000000
vt 0.000000 0.000000
vt 1.000000 0.000000
vt 0.000000 0.000000
vt 1.000000 1.000000
vt 0.000000 1.000000
vt 1.000000 1.000000
vt 1.000000 0.000000
vt 0.000000 1.000000
vt 0.000000 0.000000
vt 1.000000 1.000000
vt 1.000000 0.000000
vt 0.000000 1.000000
vt 0.000000 0.000000
vt 1.000000 0.000000
vt 0.000000 0.000000
vt 1.000000 1.000000
vt 0.000000 1.000000
vt 1.000000 1.000000
vt 1.000000 0.000000
vt 0.000000 1.000000
vt 0.000000 0.000000
vt 1.000000 1.000000
vt 1.000000 0.000000
vt 0.000000 1.000000
vt 0.000000 0.000000
vt 0.000000 0.000000
vt 1.000000 0.000000
vt 1.000000 1.000000
vt 0.000000 1.000000
vt 1.000000 1.000000
vt 1.000000 0.000000
vt 0.000000 1.000000
vt 0.000000 0.000000
vt 1.000000 1.000000
vt 1.000000 0.000000
vt 0.000000 1.000000
vt 0.000000 0.000000
vt 1.000000 0.000000
vt 0.000000 0.000000
vt 1.000000 1.000000
vt 0.000000 1.000000
vt 1.000000 1.000000
vt 1.000000 0.000000
vt 0.000000 1.000000
vt 0.000000 0.000000
vt 1.000000 1.000000
vt 1.000000 0.000000
vt 0.000000 1.000000
vt 0.000000 0.000000
vt 1.000000 0.000000
vt 0.000000 0.000000
vt 1.000000 1.000000
vt 0.000000 1.000000
vt 1.000000 1.000000
vt 1.000000 0.000000
vt 0.000000 1.000000
vt 0.000000 0.000000
vt 1.000000 1.000000
vt 1.000000 0.000000
vt 0.000000 1.000000
vt 0.000000 0.000000
vt 0.000000 0.000000
vt 1.000000 0.000000
vt 1.000000 1.000000
vt 0.000000 1.000000
vt 1.000000 1.000000
vt 1.000000 0.000000
vt 0.000000 1.000000
vt 0.000000 0.000000
vt 1.000000 1.000000
vt 1.000000 0.000000
vt 0.000000 1.000000
vt 0.000000 0.000000
vt 1.000000 0.000000
vt 0.000000 0.000000
vt 1.000000 1.000000
vt 0.000000 1.000000
vt 1.000000 1.000000
vt 1.000000 0.000000
vt 0.000000 1.000000
vt 0.000000 0.000000
vt 1.000000 1.000000
vt 1.000000 0.000000
vt 0.000000 1.000000
vt 0.000000 0.000000
vt 1.000000 0.000000
vt 0.000000 0.000000
vt 1.000000 1.000000
vt 0.000000 1.000000
vt 1.000000 1.000000
vt 1.000000 0.000000
vt 0.000000 1.000000
vt 0.000000 0.000000
vt 1.000000 1.000000
vt 1.000000 0.000000
vt 0.000000 1.000000
vt 0.000000 0.000000
vt 0.000000 0.000000
vt 1.000000 0.000000
vt 1.000000 1.000000
vt 0.000000 1.000000
vt 1.000000 1.000000
vt 1.000000 0.000000
vt 0.000000 1.000000
vt 0.000000 0.000000
vt 1.000000 1.000000
vt 1.000000 0.000000
vt 0.000000 1.000000
vt 0.000000 0.000000
vt 1.000000 0.000000
vt 0.000000 0.000000
vt 1.000000 1.000000
vt 0.000000 1.000000
vt 1.000000 1.000000
vt 1.000000 0.000000
vt 0.000000 1.000000
vt 0.000000 0.000000
vt 1.000000 1.000000
vt 1.000000 0.000000
vt 0.000000 1.000000
vt 0.000000 0.000000
vt 1.000000 0.000000
vt 0.000000 0.000000
vt 1.000000 1.000000
vt 0.000000 1.000000
vt 1.000000 1.000000
vt 1.000000 0.000000
vt 0.000000 1.000000
vt 0.000000 0.000000
vt 1.000000 1.000000
vt 1.000000 0.000000
vt 0.000000 1.000000
vt 0.000000 0.000000
vt 0.000000 0.000000
vt 1.000000 0.000000
vt 1.000000 1.000000
vt 0.000000 1.000000
s 0
f 98/353/1 17/43/1 4/7/1 18/45/1
f 89/317/2 26/72/2 8/18/2 27/75/2
f 80/281/3 35/107/3 6/12/3 36/111/3
f 71/245/4 44/138/4 2/3/4 14/35/4
f 62/209/5 30/87/5 5/9/5 41/130/5
f 53/173/6 15/40/6 2/3/6 44/139/6
f 35/108/7 47/149/7 42/133/7 6/13/7
f 47/150/8 50/161/8 43/136/8 42/132/8
f 50/162/9 53/174/9 44/140/9 43/135/9
f 8/19/10 26/72/10 45/141/10 33/99/10
f 33/100/11 45/142/11 46/145/11 34/103/11
f 34/104/12 46/146/12 47/151/12 35/109/12
f 26/73/13 25/71/13 48/153/13 45/143/13
f 45/144/14 48/154/14 49/157/14 46/147/14
f 46/148/15 49/158/15 50/163/15 47/152/15
f 25/69/16 24/68/16 51/165/16 48/155/16
f 48/156/17 51/166/17 52/169/17 49/159/17
f 49/160/18 52/170/18 53/175/18 50/164/18
f 24/66/19 4/8/19 17/44/19 51/167/19
f 51/168/20 17/43/20 16/41/20 52/171/20
f 52/172/21 16/42/21 15/39/21 53/176/21
f 11/26/22 56/185/22 39/123/22 1/1/22
f 56/186/23 59/197/23 40/126/23 39/125/23
f 59/198/24 62/210/24 41/129/24 40/127/24
f 3/5/25 23/63/25 54/177/25 9/22/25
f 9/21/26 54/178/26 55/181/26 10/23/26
f 10/24/27 55/182/27 56/187/27 11/25/27
f 23/65/28 22/60/28 57/189/28 54/179/28
f 54/180/29 57/190/29 58/193/29 55/183/29
f 55/184/30 58/194/30 59/199/30 56/188/30
f 22/62/31 21/57/31 60/201/31 57/191/31
f 57/192/32 60/202/32 61/205/32 58/195/32
f 58/196/33 61/206/33 62/211/33 59/200/33
f 21/58/34 7/15/34 32/95/34 60/203/34
f 60/204/35 32/96/35 31/91/35 61/207/35
f 61/208/36 31/92/36 30/88/36 62/212/36
f 39/124/37 65/221/37 12/27/37 1/1/37
f 65/222/38 68/233/38 13/31/38 12/28/38
f 68/234/39 71/246/39 14/36/39 13/32/39
f 5/10/40 38/119/40 63/213/40 41/130/40
f 41/131/41 63/214/41 64/217/41 40/127/41
f 40/128/42 64/218/42 65/223/42 39/125/42
f 38/120/43 37/115/43 66/225/43 63/215/43
f 63/216/44 66/226/44 67/229/44 64/219/44
f 64/220/45 67/230/45 68/235/45 65/224/45
f 37/116/46 36/112/46 69/237/46 66/227/46
f 66/228/47 69/238/47 70/241/47 67/231/47
f 67/232/48 70/242/48 71/247/48 68/236/48
f 36/113/49 6/14/49 42/133/49 69/239/49
f 69/240/50 42/134/50 43/136/50 70/243/50
f 70/244/51 43/137/51 44/140/51 71/248/51
f 30/89/52 74/257/52 38/121/52 5/11/52
f 74/258/53 77/269/53 37/117/53 38/122/53
f 77/270/54 80/282/54 36/114/54 37/118/54
f 7/16/55 29/83/55 72/249/55 32/97/55
f 32/98/56 72/250/56 73/253/56 31/93/56
f 31/94/57 73/254/57 74/259/57 30/90/57
f 29/84/58 28/79/58 75/261/58 72/251/58
f 72/252/59 75/262/59 76/265/59 73/255/59
f 73/256/60 76/266/60 77/271/60 74/260/60
f 28/80/61 27/76/61 78/273/61 75/263/61
f 75/264/62 78/274/62 79/277/62 76/267/62
f 76/268/63 79/278/63 80/283/63 77/272/63
f 27/77/64 8/20/64 33/101/64 78/275/64
f 78/276/65 33/102/65 34/105/65 79/279/65
f 79/280/66 34/106/66 35/110/66 80/284/66
f 21/58/67 83/293/67 29/85/67 7/17/67
f 83/294/68 86/305/68 28/81/68 29/86/68
f 86/306/69 89/318/69 27/78/69 28/82/69
f 3/5/70 20/53/70 81/285/70 23/64/70
f 23/65/71 81/286/71 82/289/71 22/61/71
f 22/62/72 82/290/72 83/295/72 21/59/72
f 20/54/73 19/49/73 84/297/73 81/287/73
f 81/288/74 84/298/74 85/301/74 82/291/74
f 82/292/75 85/302/75 86/307/75 83/296/75
f 19/50/76 18/46/76 87/309/76 84/299/76
f 84/300/77 87/310/77 88/313/77 85/303/77
f 85/304/78 88/314/78 89/319/78 86/308/78
f 18/47/79 4/8/79 24/67/79 87/311/79
f 87/312/80 24/68/80 25/70/80 88/315/80
f 88/316/81 25/71/81 26/74/81 89/320/81
f 9/21/82 92/329/82 20/55/82 3/6/82
f 92/330/83 95/341/83 19/51/83 20/56/83
f 95/342/84 98/354/84 18/48/84 19/52/84
f 1/2/85 12/29/85 90/321/85 11/25/85
f 11/26/86 90/322/86 91/325/86 10/23/86
f 10/24/87 91/326/87 92/331/87 9/22/87
f 12/30/88 13/33/88 93/333/88 90/323/88
f 90/324/89 93/334/89 94/337/89 91/327/89
f 91/328/90 94/338/90 95/343/90 92/332/90
f 13/34/91 14/37/91 96/345/91 93/335/91
f 93/336/92 96/346/92 97/349/92 94/339/92
f 94/340/93 97/350/93 98/355/93 95/344/93
f 14/38/94 2/4/94 15/39/94 96/347/94
f 96/348/95 15/40/95 16/41/95 97/351/95
f 97/352/96 16/42/96 17/44/96 98/356/96
