# Blender 3.5.0
# www.blender.org
mtllib Bush_Test.mtl
o Cube.008
v -0.829577 -0.829577 0.829577
v -0.913740 0.913740 0.913740
v -0.839136 -0.839136 -0.839136
v -0.867202 0.867202 -0.867202
v 0.773923 -0.773923 0.773923
v 0.988191 0.988191 0.988191
v 1.035205 -1.035205 -1.035205
v 0.731135 0.731135 -0.731135
v -1.157639 -1.157639 -0.340299
v -0.969519 -0.969519 0.283250
v -1.081640 -0.318612 1.081640
v -1.030110 0.303583 1.030110
v -1.040266 1.040266 0.304704
v -1.318753 1.318753 -0.389158
v -0.563571 0.167508 -0.563571
v -0.771007 -0.228011 -0.771007
v 0.341060 -1.159061 -1.159730
v -0.317034 -1.077613 -1.079643
v -0.285964 0.972289 -0.976080
v 0.305559 1.038715 -1.041396
v 0.862282 0.254633 -0.862282
v 0.751938 -0.222449 -0.751938
v 0.889763 -0.889763 0.259063
v 0.717324 -0.717324 -0.206769
v 0.914102 0.914102 -0.266444
v 0.945692 0.945692 0.276024
v 1.108662 0.326494 1.108662
v 1.085486 -0.319734 1.085486
v -0.288158 -0.979725 0.983392
v 0.216458 -0.736669 0.744398
v 0.243966 0.829920 0.836090
v -0.271675 0.923849 0.928450
v 0.456531 1.486248 -0.407408
v 0.454273 1.477682 0.405249
v -0.297712 0.883787 -0.255524
v -0.480392 1.576761 0.430227
v -0.338522 -1.038592 -0.294551
v -0.504613 -1.668642 0.453391
v 0.336972 -1.032714 -0.293069
v 0.366131 -1.143326 0.320956
v 0.367506 -0.414807 1.327973
v -0.309031 -0.353662 1.096027
v 0.306057 0.350553 1.084231
v -0.363661 0.410787 1.312722
v 1.501763 -0.460621 -0.411320
v 1.362852 -0.424002 0.376299
v 1.072430 0.347442 -0.303082
v 1.157556 0.369882 0.324543
v -0.394710 -0.443253 -1.435880
v 0.326957 -0.372406 -1.167130
v -0.386375 0.434537 -1.402818
v 0.249255 0.291157 -0.858919
v -1.410250 -0.436497 0.388248
v -1.151064 -0.368171 -0.322906
v -1.520008 0.465431 0.415919
v -1.271969 0.400043 -0.353387
vn -0.6083 -0.2869 -0.7400
vn 0.2762 -0.0234 -0.9608
vn 0.9656 0.2599 0.0043
vn -0.2365 0.4318 0.8704
vn 0.1828 -0.8361 0.5173
vn -0.3867 0.6949 0.6063
vn 0.2455 0.8413 0.4816
vn 0.1417 0.5753 0.8056
vn 0.7271 0.4764 -0.4944
vn 0.7582 0.6514 -0.0275
vn -0.4611 0.8683 -0.1828
vn -0.2991 0.8535 -0.4267
vn 0.2002 0.9565 -0.2123
vn -0.0145 0.9579 -0.2868
vn -0.6209 -0.5081 0.5969
vn 0.4996 -0.5858 0.6381
vn -0.1208 -0.9628 -0.2416
vn -0.3553 -0.8913 -0.2815
vn -0.0505 -0.9938 0.0987
vn 0.2579 -0.8594 -0.4415
vn 0.3112 -0.9032 0.2958
vn 0.5130 -0.8020 -0.3060
vn -0.1661 -0.3371 0.9267
vn -0.1951 -0.1164 0.9738
vn 0.1369 -0.7824 0.6075
vn 0.0968 -0.5978 0.7958
vn 0.1330 0.1565 0.9787
vn -0.0010 0.0176 0.9998
vn -0.1331 0.2853 0.9491
vn 0.2860 0.5088 0.8120
vn 0.6368 -0.6969 0.3299
vn 0.9701 0.1268 0.2068
vn 0.8731 -0.3873 -0.2962
vn 0.4897 -0.8653 -0.1069
vn 0.6875 0.1695 -0.7061
vn 0.9298 0.3676 0.0200
vn 0.8589 0.3046 -0.4118
vn 0.9460 0.3054 -0.1085
vn 0.3780 0.2252 -0.8980
vn 0.3504 0.1503 -0.9245
vn -0.7393 -0.1571 -0.6548
vn 0.1298 -0.2379 -0.9626
vn -0.9183 0.2180 -0.3304
vn 0.5106 0.2077 -0.8343
vn -0.7673 -0.0625 -0.6383
vn 0.3673 0.1302 -0.9209
vn -0.8200 0.0784 -0.5670
vn -0.4999 0.1664 -0.8499
vn -0.7006 -0.5980 0.3892
vn -0.9505 -0.3099 -0.0228
vn -0.8477 -0.0241 0.5299
vn -0.9379 -0.1301 -0.3216
vn -0.7413 0.4657 0.4833
vn -0.9570 0.2835 0.0612
vt 0.000000 1.000000
vt 0.000000 0.000000
vt 1.000000 1.000000
vt 1.000000 0.000000
vt 0.000000 0.000000
vt 0.000000 1.000000
vt 1.000000 1.000000
vt 1.000000 0.000000
vt 1.000000 1.000000
vt 0.000000 0.000000
vt 0.000000 1.000000
vt 1.000000 1.000000
vt 0.000000 1.000000
vt 1.000000 0.000000
vt 1.000000 0.000000
vt 0.000000 0.000000
vt 0.000000 1.000000
vt 1.000000 1.000000
vt 0.000000 0.000000
vt 1.000000 0.000000
vt 0.000000 0.000000
vt 0.000000 1.000000
vt 0.000000 1.000000
vt 0.000000 0.000000
vt 1.000000 1.000000
vt 0.000000 1.000000
vt 1.000000 0.000000
vt 0.000000 0.000000
vt 0.000000 1.000000
vt 1.000000 1.000000
vt 1.000000 0.000000
vt 0.000000 0.000000
vt 1.000000 1.000000
vt 1.000000 0.000000
vt 1.000000 0.000000
vt 1.000000 1.000000
vt 0.000000 1.000000
vt 1.000000 0.000000
vt 0.000000 0.000000
vt 1.000000 1.000000
vt 1.000000 0.000000
vt 0.000000 0.000000
vt 1.000000 1.000000
vt 0.000000 1.000000
vt 1.000000 0.000000
vt 0.000000 0.000000
vt 0.000000 1.000000
vt 1.000000 0.000000
vt 0.000000 1.000000
vt 0.000000 0.000000
vt 0.000000 0.000000
vt 1.000000 1.000000
vt 1.000000 0.000000
vt 1.000000 0.000000
vt 0.000000 0.000000
vt 1.000000 1.000000
vt 0.000000 1.000000
vt 1.000000 0.000000
vt 0.000000 0.000000
vt 1.000000 1.000000
vt 1.000000 0.000000
vt 0.000000 0.000000
vt 1.000000 1.000000
vt 0.000000 1.000000
vt 1.000000 0.000000
vt 1.000000 1.000000
vt 0.000000 0.000000
vt 0.000000 1.000000
vt 1.000000 1.000000
vt 1.000000 0.000000
vt 0.000000 1.000000
vt 0.000000 0.000000
vt 0.000000 1.000000
vt 0.000000 0.000000
vt 1.000000 1.000000
vt 1.000000 0.000000
vt 1.000000 0.000000
vt 0.000000 0.000000
vt 0.000000 1.000000
vt 1.000000 1.000000
vt 0.000000 1.000000
vt 1.000000 0.000000
vt 0.000000 0.000000
vt 1.000000 1.000000
vt 1.000000 0.000000
vt 0.000000 0.000000
vt 1.000000 1.000000
vt 0.000000 1.000000
vt 1.000000 1.000000
vt 0.000000 0.000000
vt 0.000000 1.000000
vt 1.000000 1.000000
vt 0.000000 1.000000
vt 0.000000 0.000000
vt 0.000000 1.000000
vt 1.000000 1.000000
vt 1.000000 0.000000
vt 1.000000 0.000000
vt 0.000000 1.000000
vt 1.000000 1.000000
vt 1.000000 1.000000
vt 1.000000 0.000000
vt 0.000000 1.000000
vt 0.000000 0.000000
vt 1.000000 0.000000
vt 0.000000 0.000000
vt 1.000000 1.000000
vt 0.000000 1.000000
vt 1.000000 1.000000
vt 1.000000 0.000000
vt 0.000000 1.000000
vt 0.000000 0.000000
vt 0.000000 0.000000
vt 1.000000 0.000000
vt 1.000000 1.000000
vt 0.000000 1.000000
vt 1.000000 1.000000
vt 1.000000 0.000000
vt 0.000000 1.000000
vt 0.000000 0.000000
vt 1.000000 0.000000
vt 0.000000 0.000000
vt 1.000000 1.000000
vt 0.000000 1.000000
vt 1.000000 1.000000
vt 1.000000 0.000000
vt 0.000000 1.000000
vt 0.000000 0.000000
vt 0.000000 0.000000
vt 1.000000 0.000000
vt 1.000000 1.000000
vt 0.000000 1.000000
vt 1.000000 1.000000
vt 1.000000 0.000000
vt 0.000000 1.000000
vt 0.000000 0.000000
vt 1.000000 0.000000
vt 0.000000 0.000000
vt 1.000000 1.000000
vt 0.000000 1.000000
vt 1.000000 1.000000
vt 1.000000 0.000000
vt 0.000000 1.000000
vt 0.000000 0.000000
vt 0.000000 0.000000
vt 1.000000 0.000000
vt 1.000000 1.000000
vt 0.000000 1.000000
vt 1.000000 1.000000
vt 1.000000 0.000000
vt 0.000000 1.000000
vt 0.000000 0.000000
vt 1.000000 0.000000
vt 0.000000 0.000000
vt 1.000000 1.000000
vt 0.000000 1.000000
vt 1.000000 1.000000
vt 1.000000 0.000000
vt 0.000000 1.000000
vt 0.000000 0.000000
vt 0.000000 0.000000
vt 1.000000 0.000000
vt 1.000000 1.000000
vt 0.000000 1.000000
vt 1.000000 1.000000
vt 1.000000 0.000000
vt 0.000000 1.000000
vt 0.000000 0.000000
vt 1.000000 0.000000
vt 0.000000 0.000000
vt 1.000000 1.000000
vt 0.000000 1.000000
vt 1.000000 1.000000
vt 1.000000 0.000000
vt 0.000000 1.000000
vt 0.000000 0.000000
vt 0.000000 0.000000
vt 1.000000 0.000000
vt 1.000000 1.000000
vt 0.000000 1.000000
vt 1.000000 1.000000
vt 1.000000 0.000000
vt 0.000000 1.000000
vt 0.000000 0.000000
vt 1.000000 0.000000
vt 0.000000 0.000000
vt 1.000000 1.000000
vt 0.000000 1.000000
vt 1.000000 1.000000
vt 1.000000 0.000000
vt 0.000000 1.000000
vt 0.000000 0.000000
vt 0.000000 0.000000
vt 1.000000 0.000000
vt 1.000000 1.000000
vt 0.000000 1.000000
s 0
f 56/193/1 14/35/1 4/7/1 15/37/1
f 52/177/2 20/54/2 8/18/2 21/57/2
f 48/161/3 26/77/3 6/12/3 27/81/3
f 44/145/4 32/98/4 2/3/4 12/29/4
f 40/129/5 23/65/5 5/9/5 30/93/5
f 36/113/6 13/34/6 2/3/6 32/99/6
f 26/78/7 34/105/7 31/96/7 6/13/7
f 34/106/8 36/114/8 32/100/8 31/95/8
f 8/19/9 20/54/9 33/101/9 25/73/9
f 25/74/10 33/102/10 34/107/10 26/79/10
f 20/55/11 19/53/11 35/109/11 33/103/11
f 33/104/12 35/110/12 36/115/12 34/108/12
f 19/51/13 4/8/13 14/36/13 35/111/13
f 35/112/14 14/35/14 13/33/14 36/116/14
f 10/24/15 38/121/15 29/89/15 1/1/15
f 38/122/16 40/130/16 30/92/16 29/91/16
f 3/5/17 18/48/17 37/117/17 9/22/17
f 9/21/18 37/118/18 38/123/18 10/23/18
f 18/50/19 17/45/19 39/125/19 37/119/19
f 37/120/20 39/126/20 40/131/20 38/124/20
f 17/46/21 7/15/21 24/69/21 39/127/21
f 39/128/22 24/70/22 23/66/22 40/132/22
f 29/90/23 42/137/23 11/25/23 1/1/23
f 42/138/24 44/146/24 12/30/24 11/26/24
f 5/10/25 28/85/25 41/133/25 30/93/25
f 30/94/26 41/134/26 42/139/26 29/91/26
f 28/86/27 27/82/27 43/141/27 41/135/27
f 41/136/28 43/142/28 44/147/28 42/140/28
f 27/83/29 6/14/29 31/96/29 43/143/29
f 43/144/30 31/97/30 32/100/30 44/148/30
f 23/67/31 46/153/31 28/87/31 5/11/31
f 46/154/32 48/162/32 27/84/32 28/88/32
f 7/16/33 22/61/33 45/149/33 24/71/33
f 24/72/34 45/150/34 46/155/34 23/68/34
f 22/62/35 21/58/35 47/157/35 45/151/35
f 45/152/36 47/158/36 48/163/36 46/156/36
f 21/59/37 8/20/37 25/75/37 47/159/37
f 47/160/38 25/76/38 26/80/38 48/164/38
f 17/46/39 50/169/39 22/63/39 7/17/39
f 50/170/40 52/178/40 21/60/40 22/64/40
f 3/5/41 16/41/41 49/165/41 18/49/41
f 18/50/42 49/166/42 50/171/42 17/47/42
f 16/42/43 15/38/43 51/173/43 49/167/43
f 49/168/44 51/174/44 52/179/44 50/172/44
f 15/39/45 4/8/45 19/52/45 51/175/45
f 51/176/46 19/53/46 20/56/46 52/180/46
f 9/21/47 54/185/47 16/43/47 3/6/47
f 54/186/48 56/194/48 15/40/48 16/44/48
f 1/2/49 11/27/49 53/181/49 10/23/49
f 10/24/50 53/182/50 54/187/50 9/22/50
f 11/28/51 12/31/51 55/189/51 53/183/51
f 53/184/52 55/190/52 56/195/52 54/188/52
f 12/32/53 2/4/53 13/33/53 55/191/53
f 55/192/54 13/34/54 14/36/54 56/196/54
