# Blender 3.5.0
# www.blender.org
o Plane
v -0.101681 0.000000 -0.009158
v 0.101681 0.000000 -0.009158
v 0.000000 1.877779 0.020318
v -0.205597 0.807617 -0.047072
v -0.108974 1.561473 -0.011898
v -0.188440 0.429630 -0.034616
v 0.188440 0.429630 -0.034616
v 0.108974 1.561473 -0.011898
v 0.205597 0.807618 -0.047072
v -0.183511 1.202118 -0.033668
v 0.183511 1.202118 -0.033668
vn -0.0000 -0.1013 0.9949
vn -0.0000 0.0592 0.9982
vn -0.0000 -0.0605 0.9982
vn -0.0000 0.0329 0.9995
vn -0.0000 -0.0340 0.9994
vt 0.000000 0.000000
vt 1.000000 0.000000
vt 0.000000 1.000000
vt 0.000000 0.402999
vt 0.000000 0.766946
vt 0.000000 0.214815
vt 1.000000 0.214815
vt 0.699162 0.766946
vt 0.982327 0.402999
vt 0.000000 0.594578
vt 0.858616 0.594578
s 0
f 5/5/1 8/8/1 3/3/1
f 1/1/2 2/2/2 7/7/2 6/6/2
f 10/10/3 11/11/3 8/8/3 5/5/3
f 6/6/4 7/7/4 9/9/4 4/4/4
f 4/4/5 9/9/5 11/11/5 10/10/5
