# Blender 3.5.0
# www.blender.org
mtllib ANOTHER_GRASS_PLEASEEEEE.mtl
o Plane
v -0.143728 -0.000000 0.074885
v -0.415260 -0.000000 0.084969
v -0.282437 2.030759 0.491393
v -0.186953 1.533990 0.256158
v -0.157663 1.051743 0.126292
v -0.143734 0.558655 0.075641
v -0.415265 0.558655 0.085725
v -0.402053 1.051743 0.135369
v -0.374605 1.533990 0.263127
v -0.335158 1.916646 0.422020
v -0.228694 1.916646 0.418066
v -0.282437 2.030759 0.491393
v 0.121001 -0.010767 -0.303009
v -0.014417 -0.006481 -0.028603
v 0.151555 2.334249 -0.151927
v 0.066168 1.730354 -0.303684
v 0.031327 1.166591 -0.348351
v 0.055283 0.608623 -0.345112
v -0.080135 0.612909 -0.070706
v -0.090555 1.170449 -0.101372
v -0.027417 1.733316 -0.114045
v 0.079702 2.192660 -0.118609
v 0.132798 2.190980 -0.226200
v 0.476799 2.297117 0.024555
vn -0.0332 0.4466 -0.8941
vn -0.0332 0.4485 -0.8932
vn -0.0315 0.5298 -0.8475
vn -0.0371 0.0014 -0.9993
vn -0.0371 0.0509 -0.9980
vn -0.0371 0.0508 -0.9980
vn -0.0365 0.1783 -0.9833
vn -0.0365 0.1775 -0.9834
vn -0.0352 0.3202 -0.9467
vn -0.0352 0.3190 -0.9471
vn -0.8656 0.2546 -0.4312
vn -0.8656 0.2547 -0.4311
vn -0.8447 0.3293 -0.4220
vn -0.8906 -0.1242 -0.4376
vn -0.8942 -0.0831 -0.4400
vn -0.8964 0.0229 -0.4427
vn -0.8964 0.0228 -0.4427
vn -0.8867 0.1428 -0.4398
vn -0.8867 0.1427 -0.4398
vt 0.000000 0.000000
vt 1.000000 0.000000
vt 0.000000 1.000000
vt 0.000000 0.750000
vt 0.000000 0.500000
vt 0.000000 0.250000
vt 1.000000 0.250000
vt 1.000000 0.500000
vt 1.000000 0.750000
vt 1.000000 0.952381
vt 0.000000 0.952381
vt 0.000000 0.000000
vt 1.000000 0.000000
vt 0.000000 1.000000
vt 0.000000 0.750000
vt 0.000000 0.500000
vt 0.000000 0.250000
vt 1.000000 0.250000
vt 1.000000 0.500000
vt 1.000000 0.750000
vt 1.000000 0.952381
vt 0.000000 0.952381
s 1
f 11/11/1 10/10/2 3/3/3
f 1/1/4 2/2/4 7/7/5 6/6/6
f 6/6/6 7/7/5 8/8/7 5/5/8
f 5/5/8 8/8/7 9/9/9 4/4/10
f 4/4/10 9/9/9 10/10/2 11/11/1
f 23/22/11 22/21/12 15/14/13
f 13/12/14 14/13/14 19/18/15 18/17/15
f 18/17/15 19/18/15 20/19/16 17/16/17
f 17/16/17 20/19/16 21/20/18 16/15/19
f 16/15/19 21/20/18 22/21/12 23/22/11
