# Blender 3.5.0
# www.blender.org
mtllib Big_Slab.mtl
o Big_path_
v 3.684494 -0.072923 2.542066
v 3.684494 0.072923 2.542066
v 3.684494 -0.072923 -2.098798
v 3.684494 0.072923 -2.098798
v 8.361810 -0.072923 2.117032
v 8.361810 0.072923 2.117032
v 8.361810 -0.072923 -2.523831
v 8.361810 0.072923 -2.523831
v 4.613332 0.072923 -2.523831
v 4.429782 0.072923 -2.098798
v 4.429782 -0.072923 -2.098798
v 4.613332 -0.072923 -2.523831
v 6.694346 0.072923 2.542066
v 6.877897 0.072923 2.117032
v 6.877897 -0.072923 2.117032
v 6.694346 -0.072923 2.542066
vn -1.0000 -0.0000 -0.0000
vn -0.0000 -0.0000 -1.0000
vn 1.0000 -0.0000 -0.0000
vn -0.0000 -0.0000 1.0000
vn -0.0000 -1.0000 -0.0000
vn -0.0000 1.0000 -0.0000
vn 0.8987 -0.0000 -0.4385
vn -0.8987 -0.0000 0.4385
vt 0.375000 0.000000
vt 0.375000 1.000000
vt 0.125000 0.750000
vt 0.625000 0.000000
vt 0.625000 1.000000
vt 0.875000 0.750000
vt 0.375000 0.250000
vt 0.125000 0.500000
vt 0.625000 0.250000
vt 0.875000 0.500000
vt 0.375000 0.750000
vt 0.625000 0.750000
vt 0.375000 0.500000
vt 0.625000 0.500000
vt 0.625000 0.298072
vt 0.826928 0.500000
vt 0.509115 0.584977
vt 0.625000 0.290148
vt 0.834852 0.500000
vt 0.509115 0.166089
vt 0.375000 0.290148
vt 0.165148 0.500000
vt 0.490885 0.166089
vt 0.375000 0.298072
vt 0.173072 0.500000
vt 0.490885 0.584977
vt 0.625000 0.837861
vt 0.712861 0.750000
vt 0.509115 0.080712
vt 0.625000 0.829937
vt 0.704937 0.750000
vt 0.509115 0.670354
vt 0.375000 0.829937
vt 0.295063 0.750000
vt 0.490885 0.670354
vt 0.375000 0.837861
vt 0.287139 0.750000
vt 0.490885 0.080712
s 0
f 1/1/1 2/4/1 4/9/1 3/7/1
f 8/14/2 7/13/2 12/24/2 9/15/2
f 3/7/2 4/9/2 10/18/2 11/21/2
f 7/13/3 8/14/3 6/12/3 5/11/3
f 2/5/4 1/2/4 16/36/4 13/27/4
f 5/11/4 6/12/4 14/30/4 15/33/4
f 12/25/5 7/13/5 5/11/5 15/34/5
f 16/37/5 1/3/5 3/8/5 11/22/5
f 10/19/6 4/10/6 2/6/6 13/28/6
f 14/31/6 6/12/6 8/14/6 9/16/6
f 11/23/7 10/20/7 13/29/7 16/38/7
f 14/32/8 9/17/8 12/26/8 15/35/8
