# Blender 3.5.0
# www.blender.org
mtllib bill_grass.mtl
o Plane
v -0.231914 -0.018226 -0.026749
v -0.028686 0.006048 -0.005883
v -0.324665 1.621157 -0.016316
v -0.412294 1.224448 -0.029983
v -0.395178 0.617984 -0.035583
v -0.326022 0.302571 -0.032397
v -0.012782 0.339986 -0.000236
v -0.019860 0.662813 0.002951
v -0.146065 1.256248 -0.002649
v -0.416345 0.920310 -0.034071
v -0.070495 0.961619 0.001438
v 0.072157 -0.005867 0.008469
v 0.229827 -0.048764 0.025128
v 0.494467 1.235148 0.016799
v 0.310813 0.967803 0.005887
v 0.141860 0.513859 0.001417
v 0.098582 0.259724 0.003961
v 0.341602 0.193606 0.029636
v 0.433042 0.434637 0.032181
v 0.517361 0.911608 0.027710
v 0.216734 0.743936 0.002624
v 0.485054 0.670935 0.030973
vn -0.1007 -0.0120 0.9948
vn -0.0979 0.0266 0.9948
vt 0.000000 0.000000
vt 1.000000 0.000000
vt 0.000000 1.000000
vt 0.000000 0.792619
vt 0.000000 0.411107
vt 0.000000 0.208175
vt 1.000000 0.208175
vt 1.000000 0.411107
vt 0.829523 0.792619
vt 0.000000 0.602239
vt 0.928081 0.602239
vt 0.000000 0.000000
vt 1.000000 0.000000
vt 0.000000 1.000000
vt 0.000000 0.792619
vt 0.000000 0.411107
vt 0.000000 0.208175
vt 1.000000 0.208175
vt 1.000000 0.411107
vt 0.829523 0.792619
vt 0.000000 0.602239
vt 0.928081 0.602239
s 0
f 4/4/1 9/9/1 3/3/1
f 1/1/1 2/2/1 7/7/1 6/6/1
f 6/6/1 7/7/1 8/8/1 5/5/1
f 10/10/1 11/11/1 9/9/1 4/4/1
f 5/5/1 8/8/1 11/11/1 10/10/1
f 15/15/2 20/20/2 14/14/2
f 12/12/2 13/13/2 18/18/2 17/17/2
f 17/17/2 18/18/2 19/19/2 16/16/2
f 21/21/2 22/22/2 20/20/2 15/15/2
f 16/16/2 19/19/2 22/22/2 21/21/2
