# Blender 3.5.0
# www.blender.org
mtllib Proc_clumpobj.mtl
o Cube.008
v -1.345539 -1.345539 1.345539
v -1.169217 1.169217 1.169217
v -1.568322 -1.568322 -1.568322
v -1.676443 1.676443 -1.676443
v 1.603000 -1.602999 1.603000
v 1.399933 1.399933 1.399933
v 1.561236 -1.561236 -1.561236
v 1.622864 1.622864 -1.622864
v -1.769359 -1.769359 -0.914203
v -1.564482 -1.564482 -0.000000
v -1.550762 -1.550762 0.811352
v -1.989151 -1.017616 1.989151
v -1.862458 -0.000000 1.862458
v -1.262436 0.675694 1.262436
v -1.659045 1.659045 0.862300
v -2.140023 2.140023 0.000000
v -1.863233 1.863233 -0.958371
v -1.712213 0.887316 -1.712213
v -1.748238 -0.000000 -1.748237
v -1.986336 -1.016292 -1.986336
v 0.754665 -1.430279 -1.430279
v 0.000000 -1.963113 -1.963112
v -1.030346 -2.016206 -2.016207
v -0.991074 1.932739 -1.932739
v -0.000000 1.701415 -1.701415
v 0.821921 1.573225 -1.573226
v 1.995958 1.020819 -1.995958
v 2.102560 0.000000 -2.102561
v 1.793687 -0.925649 -1.793687
v 1.847917 -1.847917 0.951165
v 2.011079 -2.011079 0.000000
v 1.830961 -1.830961 -0.943187
v 1.697607 1.697607 -0.880443
v 1.647441 1.647441 0.000000
v 1.586282 1.586282 0.828065
v 1.630258 0.848755 1.630258
v 1.672709 -0.000000 1.672709
v 1.622018 -0.844879 1.622019
v -0.752091 -1.424810 1.424810
v -0.000000 -2.086215 2.086214
v 0.942084 -1.828617 1.828617
v 0.912018 1.764716 1.764716
v 0.000000 1.657734 1.657734
v -0.788860 1.502956 1.502956
v -2.273314 -0.982112 0.982112
v -2.383092 -0.000000 1.014353
v -2.006909 0.880305 0.880305
v -2.244172 -0.961426 -0.000000
v -2.359639 0.000000 0.000000
v -2.506747 1.061465 0.000000
v -2.333005 -1.004923 -1.004923
v -2.078633 0.000000 -0.898357
v -2.237553 0.968446 -0.968446
v -1.126152 -1.126152 -2.650234
v -1.112006 -0.000000 -2.639405
v -0.943771 0.943771 -2.172985
v 0.000000 -1.047820 -2.470934
v 0.000000 0.000000 -2.792081
v -0.000000 0.897486 -2.076345
v 1.016606 -1.016606 -2.363579
v 1.249716 0.000000 -3.000856
v 0.963567 0.963567 -2.224786
v 2.301038 -0.992707 -0.992707
v 2.483823 -0.000000 -1.052731
v 2.532087 1.081002 -1.081002
v 2.644123 -1.113804 0.000000
v 2.762800 0.000000 0.000000
v 2.183869 0.938451 -0.000000
v 2.335997 -1.006066 1.006066
v 2.498775 0.000000 1.058428
v 2.164999 0.940719 0.940719
v 0.929323 -0.929323 2.135179
v 0.933243 -0.000000 2.170199
v 0.909436 0.909436 2.083139
v -0.000000 -0.992394 2.325455
v -0.000000 0.000000 2.130662
v 0.000000 0.818904 1.870088
v -0.966740 -0.966740 2.233088
v -0.940572 0.000000 2.189435
v -0.750578 0.750578 1.667442
v -0.928046 -2.131837 -0.928046
v -0.000000 -2.021741 -0.876682
v 0.899445 -2.056994 -0.899445
v -0.913257 -2.117741 0.000000
v 0.000000 -2.510786 0.000000
v 1.031639 -2.428463 -0.000000
v -0.813388 -1.831801 0.813388
v 0.000000 -2.459087 1.043307
v 1.173226 -2.773416 1.173226
v 0.927095 2.129348 -0.927095
v 0.000000 2.528721 -1.069837
v -1.057168 2.469720 -1.057168
v 0.952007 2.219450 0.000000
v 0.000000 2.740651 0.000000
v -1.140687 2.714686 -0.000000
v 0.948894 2.186390 0.948894
v -0.000000 2.103228 0.907728
v -0.926135 2.126835 0.926135
vn -0.9930 -0.1146 -0.0273
vn -0.9585 0.1306 0.2535
vn -0.9919 0.0756 -0.1019
vn -0.9500 -0.1526 -0.2724
vn -0.4325 -0.8709 0.2332
vn -0.9169 0.0266 0.3983
vn -0.5020 0.6060 0.6170
vn -0.3830 0.2114 0.8992
vn -0.7762 0.3040 0.5524
vn -0.8877 0.3350 -0.3158
vn -0.8599 0.2219 -0.4596
vn -0.8805 -0.0669 -0.4694
vn -0.9008 0.2766 -0.3348
vn -0.7012 -0.6424 -0.3093
vn -0.7319 -0.6524 0.1965
vn -0.6418 -0.7668 -0.0085
vn 0.0167 -0.1414 -0.9898
vn -0.0107 0.5409 -0.8410
vn -0.0349 -0.4176 -0.9080
vn -0.1444 0.6053 -0.7828
vn -0.6333 -0.5905 -0.5002
vn -0.7051 0.1632 -0.6901
vn -0.6743 0.2644 -0.6895
vn -0.4613 0.1332 -0.8772
vn 0.2030 0.3226 -0.9245
vn 0.0113 0.5883 -0.8086
vn 0.0357 0.6541 -0.7556
vn 0.4521 0.4357 -0.7783
vn 0.6021 -0.4791 -0.6387
vn 0.1537 -0.7660 -0.6242
vn 0.4290 -0.7016 -0.5690
vn 0.1227 -0.5258 -0.8417
vn 0.9444 -0.1436 -0.2957
vn 0.9659 0.2545 0.0483
vn 0.9533 -0.1333 0.2711
vn 0.8893 0.4398 0.1253
vn 0.7352 -0.4478 -0.5089
vn 0.8556 -0.3004 -0.4217
vn 0.9049 0.0409 -0.4237
vn 0.6104 0.7390 -0.2851
vn 0.6954 0.6876 0.2088
vn 0.7685 0.6374 0.0560
vn 0.6460 0.5792 0.4971
vn 0.6699 0.2047 0.7136
vn 0.6127 -0.1142 0.7820
vn 0.7282 -0.2601 0.6341
vn 0.8061 -0.5281 0.2672
vn 0.8019 -0.5182 -0.2974
vn 0.0776 0.0824 0.9936
vn -0.1426 0.1933 0.9707
vn -0.0159 0.1210 0.9925
vn -0.0937 0.4533 0.8864
vn 0.5017 -0.1686 0.8485
vn 0.5779 -0.0571 0.8141
vn 0.5460 0.0820 0.8337
vn 0.6064 0.3723 0.7026
vn -0.1962 0.2934 0.9356
vn -0.2505 0.2174 0.9434
vn -0.6746 0.1779 0.7164
vn -0.3567 0.6916 0.6280
vn -0.2827 0.1036 0.9536
vn -0.1011 -0.8987 0.4267
vn -0.5092 -0.5288 0.6791
vn 0.2660 -0.2530 0.9302
vn -0.1402 -0.9578 -0.2509
vn 0.0168 -0.8993 -0.4370
vn -0.5181 -0.8362 0.1799
vn -0.0966 -0.9875 -0.1245
vn -0.5424 -0.8207 -0.1799
vn 0.0872 -0.9927 -0.0836
vn 0.3735 -0.8416 -0.3901
vn -0.0181 -0.7914 -0.6110
vn 0.2958 -0.9002 -0.3196
vn 0.6242 -0.7789 -0.0603
vn 0.6124 -0.4608 0.6424
vn 0.0159 -0.7889 0.6143
vn -0.7044 -0.6317 0.3239
vn -0.2545 -0.8271 0.5012
vn -0.5058 -0.8414 0.1905
vn -0.5150 -0.8418 0.1615
vn 0.4442 0.8850 -0.1394
vn -0.0390 0.9766 -0.2113
vn 0.2049 0.9205 0.3328
vn 0.0040 0.8317 0.5552
vn 0.2129 0.8789 -0.4269
vn 0.3016 0.6344 -0.7117
vn 0.1327 0.7377 -0.6620
vn -0.5273 0.7390 -0.4193
vn -0.5337 0.7907 -0.3001
vn -0.4354 0.6880 0.5805
vn -0.5200 0.3318 0.7871
vn -0.1089 0.7684 0.6306
vn -0.1269 0.8690 0.4783
vn 0.6911 0.6145 0.3804
vn 0.6623 0.7465 0.0635
vn 0.5652 0.8249 -0.0103
vt 0.000000 0.000000
vt 0.000000 1.000000
vt 1.000000 0.000000
vt 1.000000 1.000000
vt 0.000000 1.000000
vt 0.000000 0.000000
vt 1.000000 1.000000
vt 1.000000 0.000000
vt 0.000000 1.000000
vt 0.000000 0.000000
vt 1.000000 1.000000
vt 1.000000 1.000000
vt 1.000000 0.000000
vt 0.000000 1.000000
vt 0.000000 1.000000
vt 0.000000 0.000000
vt 1.000000 0.000000
vt 1.000000 1.000000
vt 1.000000 0.000000
vt 0.000000 0.000000
vt 0.000000 1.000000
vt 0.000000 0.000000
vt 0.000000 0.000000
vt 0.000000 1.000000
vt 0.000000 0.000000
vt 0.000000 1.000000
vt 1.000000 0.000000
vt 0.000000 0.000000
vt 0.000000 1.000000
vt 1.000000 1.000000
vt 1.000000 0.000000
vt 0.000000 0.000000
vt 0.000000 1.000000
vt 1.000000 1.000000
vt 1.000000 0.000000
vt 0.000000 0.000000
vt 0.000000 1.000000
vt 1.000000 1.000000
vt 1.000000 1.000000
vt 1.000000 0.000000
vt 1.000000 1.000000
vt 1.000000 0.000000
vt 1.000000 1.000000
vt 1.000000 0.000000
vt 0.000000 1.000000
vt 1.000000 1.000000
vt 1.000000 0.000000
vt 0.000000 0.000000
vt 0.000000 1.000000
vt 1.000000 1.000000
vt 1.000000 0.000000
vt 0.000000 0.000000
vt 0.000000 1.000000
vt 1.000000 1.000000
vt 1.000000 0.000000
vt 0.000000 0.000000
vt 0.000000 1.000000
vt 1.000000 0.000000
vt 0.000000 0.000000
vt 0.000000 1.000000
vt 1.000000 0.000000
vt 0.000000 0.000000
vt 0.000000 1.000000
vt 1.000000 0.000000
vt 0.000000 0.000000
vt 1.000000 1.000000
vt 1.000000 0.000000
vt 0.000000 0.000000
vt 1.000000 1.000000
vt 1.000000 0.000000
vt 0.000000 0.000000
vt 1.000000 1.000000
vt 1.000000 0.000000
vt 0.000000 0.000000
vt 0.000000 1.000000
vt 1.000000 1.000000
vt 1.000000 0.000000
vt 0.000000 0.000000
vt 0.000000 1.000000
vt 1.000000 1.000000
vt 1.000000 0.000000
vt 0.000000 0.000000
vt 0.000000 1.000000
vt 1.000000 1.000000
vt 1.000000 0.000000
vt 0.000000 0.000000
vt 0.000000 0.000000
vt 0.000000 1.000000
vt 1.000000 1.000000
vt 1.000000 0.000000
vt 0.000000 0.000000
vt 0.000000 1.000000
vt 1.000000 1.000000
vt 1.000000 0.000000
vt 0.000000 1.000000
vt 0.000000 0.000000
vt 1.000000 1.000000
vt 1.000000 0.000000
vt 1.000000 1.000000
vt 1.000000 0.000000
vt 0.000000 1.000000
vt 0.000000 0.000000
vt 1.000000 1.000000
vt 1.000000 0.000000
vt 0.000000 0.000000
vt 0.000000 1.000000
vt 1.000000 1.000000
vt 1.000000 0.000000
vt 0.000000 0.000000
vt 0.000000 1.000000
vt 0.000000 1.000000
vt 1.000000 1.000000
vt 1.000000 0.000000
vt 0.000000 0.000000
vt 0.000000 1.000000
vt 1.000000 1.000000
vt 1.000000 0.000000
vt 0.000000 0.000000
vt 0.000000 1.000000
vt 1.000000 1.000000
vt 1.000000 0.000000
vt 0.000000 0.000000
vt 0.000000 0.000000
vt 0.000000 1.000000
vt 1.000000 1.000000
vt 0.000000 0.000000
vt 0.000000 1.000000
vt 1.000000 1.000000
vt 0.000000 0.000000
vt 0.000000 1.000000
vt 1.000000 1.000000
vt 1.000000 0.000000
vt 0.000000 1.000000
vt 1.000000 1.000000
vt 1.000000 0.000000
vt 0.000000 1.000000
vt 1.000000 1.000000
vt 1.000000 0.000000
vt 0.000000 1.000000
vt 1.000000 1.000000
vt 0.000000 0.000000
vt 1.000000 1.000000
vt 0.000000 1.000000
vt 1.000000 0.000000
vt 1.000000 0.000000
vt 0.000000 0.000000
vt 1.000000 1.000000
vt 0.000000 1.000000
vt 1.000000 0.000000
vt 1.000000 1.000000
vt 0.000000 1.000000
vt 0.000000 0.000000
vt 0.000000 1.000000
vt 0.000000 0.000000
vt 1.000000 0.000000
vt 1.000000 1.000000
vt 1.000000 1.000000
vt 0.000000 1.000000
vt 1.000000 0.000000
vt 0.000000 0.000000
vt 1.000000 1.000000
vt 1.000000 0.000000
vt 0.000000 1.000000
vt 0.000000 0.000000
vt 0.000000 1.000000
vt 0.000000 0.000000
vt 1.000000 0.000000
vt 1.000000 1.000000
vt 1.000000 1.000000
vt 0.000000 1.000000
vt 0.000000 0.000000
vt 1.000000 0.000000
vt 1.000000 1.000000
vt 0.000000 1.000000
vt 0.000000 0.000000
vt 1.000000 0.000000
vt 0.000000 0.000000
vt 1.000000 1.000000
vt 0.000000 1.000000
vt 1.000000 0.000000
vt 1.000000 0.000000
vt 0.000000 0.000000
vt 1.000000 1.000000
vt 0.000000 1.000000
vt 1.000000 0.000000
vt 1.000000 1.000000
vt 0.000000 1.000000
vt 0.000000 0.000000
vt 0.000000 1.000000
vt 0.000000 0.000000
vt 1.000000 0.000000
vt 1.000000 1.000000
vt 1.000000 1.000000
vt 0.000000 1.000000
vt 1.000000 0.000000
vt 0.000000 0.000000
vt 1.000000 1.000000
vt 1.000000 0.000000
vt 0.000000 1.000000
vt 0.000000 0.000000
vt 0.000000 1.000000
vt 0.000000 0.000000
vt 1.000000 0.000000
vt 1.000000 1.000000
vt 1.000000 1.000000
vt 0.000000 1.000000
vt 0.000000 0.000000
vt 1.000000 0.000000
vt 1.000000 1.000000
vt 0.000000 1.000000
vt 0.000000 0.000000
vt 1.000000 0.000000
vt 0.000000 0.000000
vt 1.000000 1.000000
vt 0.000000 1.000000
vt 1.000000 0.000000
vt 1.000000 0.000000
vt 0.000000 0.000000
vt 1.000000 1.000000
vt 0.000000 1.000000
vt 1.000000 0.000000
vt 1.000000 1.000000
vt 0.000000 1.000000
vt 0.000000 0.000000
vt 0.000000 1.000000
vt 0.000000 0.000000
vt 1.000000 0.000000
vt 1.000000 1.000000
vt 1.000000 1.000000
vt 0.000000 1.000000
vt 1.000000 0.000000
vt 0.000000 0.000000
vt 1.000000 1.000000
vt 1.000000 0.000000
vt 0.000000 1.000000
vt 0.000000 0.000000
vt 0.000000 1.000000
vt 0.000000 0.000000
vt 1.000000 0.000000
vt 1.000000 1.000000
vt 1.000000 1.000000
vt 0.000000 1.000000
vt 0.000000 0.000000
vt 1.000000 0.000000
vt 1.000000 1.000000
vt 0.000000 1.000000
vt 0.000000 0.000000
vt 1.000000 0.000000
vt 0.000000 0.000000
vt 1.000000 1.000000
vt 0.000000 1.000000
vt 1.000000 0.000000
vt 1.000000 0.000000
vt 0.000000 0.000000
vt 1.000000 1.000000
vt 0.000000 1.000000
vt 1.000000 0.000000
vt 1.000000 1.000000
vt 0.000000 1.000000
vt 0.000000 0.000000
vt 0.000000 1.000000
vt 0.000000 0.000000
vt 1.000000 0.000000
vt 1.000000 1.000000
vt 1.000000 1.000000
vt 0.000000 1.000000
vt 1.000000 0.000000
vt 0.000000 0.000000
vt 1.000000 1.000000
vt 1.000000 0.000000
vt 0.000000 1.000000
vt 0.000000 0.000000
vt 0.000000 1.000000
vt 0.000000 0.000000
vt 1.000000 0.000000
vt 1.000000 1.000000
vt 1.000000 1.000000
vt 0.000000 1.000000
vt 0.000000 0.000000
vt 1.000000 0.000000
vt 1.000000 1.000000
vt 0.000000 1.000000
vt 0.000000 0.000000
vt 1.000000 0.000000
vt 0.000000 0.000000
vt 1.000000 1.000000
vt 0.000000 1.000000
vt 1.000000 0.000000
vt 1.000000 0.000000
vt 0.000000 0.000000
vt 1.000000 1.000000
vt 0.000000 1.000000
vt 1.000000 0.000000
vt 1.000000 1.000000
vt 0.000000 1.000000
vt 0.000000 0.000000
vt 0.000000 1.000000
vt 0.000000 0.000000
vt 1.000000 0.000000
vt 1.000000 1.000000
vt 1.000000 1.000000
vt 0.000000 1.000000
vt 1.000000 0.000000
vt 0.000000 0.000000
vt 1.000000 1.000000
vt 1.000000 0.000000
vt 0.000000 1.000000
vt 0.000000 0.000000
vt 0.000000 1.000000
vt 0.000000 0.000000
vt 1.000000 0.000000
vt 1.000000 1.000000
vt 1.000000 1.000000
vt 0.000000 1.000000
vt 0.000000 0.000000
vt 1.000000 0.000000
vt 1.000000 1.000000
vt 0.000000 1.000000
vt 0.000000 0.000000
vt 1.000000 0.000000
vt 0.000000 0.000000
vt 1.000000 1.000000
vt 0.000000 1.000000
vt 1.000000 0.000000
vt 1.000000 0.000000
vt 0.000000 0.000000
vt 1.000000 1.000000
vt 0.000000 1.000000
vt 1.000000 0.000000
vt 1.000000 1.000000
vt 0.000000 1.000000
vt 0.000000 0.000000
vt 0.000000 1.000000
vt 0.000000 0.000000
vt 1.000000 0.000000
vt 1.000000 1.000000
vt 1.000000 1.000000
vt 0.000000 1.000000
vt 1.000000 0.000000
vt 0.000000 0.000000
vt 1.000000 1.000000
vt 1.000000 0.000000
vt 0.000000 1.000000
vt 0.000000 0.000000
vt 0.000000 1.000000
vt 0.000000 0.000000
vt 1.000000 0.000000
vt 1.000000 1.000000
vt 1.000000 1.000000
vt 0.000000 1.000000
vt 0.000000 0.000000
vt 1.000000 0.000000
vt 1.000000 1.000000
vt 0.000000 1.000000
vt 0.000000 0.000000
vt 1.000000 0.000000
s 0
f 45/141/1 46/145/1 49/157/1 48/153/1
f 46/146/2 47/149/2 50/161/2 49/158/2
f 48/154/3 49/159/3 52/169/3 51/165/3
f 49/160/4 50/162/4 53/173/4 52/170/4
f 1/1/5 12/27/5 45/142/5 11/26/5
f 12/28/6 13/31/6 46/147/6 45/143/6
f 13/32/7 14/35/7 47/150/7 46/148/7
f 14/36/8 2/3/8 15/39/8 47/151/8
f 47/152/9 15/40/9 16/41/9 50/163/9
f 50/164/10 16/42/10 17/43/10 53/174/10
f 53/175/11 17/44/11 4/7/11 18/45/11
f 52/171/12 53/176/12 18/46/12 19/49/12
f 51/166/13 52/172/13 19/50/13 20/53/13
f 9/22/14 51/167/14 20/54/14 3/5/14
f 10/23/15 48/155/15 51/168/15 9/21/15
f 11/25/16 45/144/16 48/156/16 10/24/16
f 54/177/17 55/181/17 58/193/17 57/189/17
f 55/182/18 56/185/18 59/197/18 58/194/18
f 57/190/19 58/195/19 61/205/19 60/201/19
f 58/196/20 59/198/20 62/209/20 61/206/20
f 3/6/21 20/55/21 54/178/21 23/63/21
f 20/56/22 19/51/22 55/183/22 54/179/22
f 19/52/23 18/47/23 56/186/23 55/184/23
f 18/48/24 4/8/24 24/66/24 56/187/24
f 56/188/25 24/67/25 25/69/25 59/199/25
f 59/200/26 25/70/26 26/72/26 62/210/26
f 62/211/27 26/73/27 8/18/27 27/75/27
f 61/207/28 62/212/28 27/76/28 28/79/28
f 60/202/29 61/208/29 28/80/29 29/83/29
f 21/59/30 60/203/30 29/84/30 7/15/30
f 22/62/31 57/191/31 60/204/31 21/57/31
f 23/65/32 54/180/32 57/192/32 22/60/32
f 63/213/33 64/217/33 67/229/33 66/225/33
f 64/218/34 65/221/34 68/233/34 67/230/34
f 66/226/35 67/231/35 70/241/35 69/237/35
f 67/232/36 68/234/36 71/245/36 70/242/36
f 7/16/37 29/85/37 63/214/37 32/95/37
f 29/86/38 28/81/38 64/219/38 63/215/38
f 28/82/39 27/77/39 65/222/39 64/220/39
f 27/78/40 8/19/40 33/99/40 65/223/40
f 65/224/41 33/100/41 34/103/41 68/235/41
f 68/236/42 34/104/42 35/107/42 71/246/42
f 71/247/43 35/108/43 6/12/43 36/111/43
f 70/243/44 71/248/44 36/112/44 37/115/44
f 69/238/45 70/244/45 37/116/45 38/119/45
f 30/87/46 69/239/46 38/120/46 5/9/46
f 31/91/47 66/227/47 69/240/47 30/88/47
f 32/96/48 63/216/48 66/228/48 31/92/48
f 72/249/49 73/253/49 76/265/49 75/261/49
f 73/254/50 74/257/50 77/269/50 76/266/50
f 75/262/51 76/267/51 79/277/51 78/273/51
f 76/268/52 77/270/52 80/281/52 79/278/52
f 5/10/53 38/121/53 72/250/53 41/130/53
f 38/122/54 37/117/54 73/255/54 72/251/54
f 37/118/55 36/113/55 74/258/55 73/256/55
f 36/114/56 6/13/56 42/134/56 74/259/56
f 74/260/57 42/132/57 43/137/57 77/271/57
f 77/272/58 43/135/58 44/140/58 80/282/58
f 80/283/59 44/138/59 2/4/59 14/37/59
f 79/279/60 80/284/60 14/38/60 13/33/60
f 78/274/61 79/280/61 13/34/61 12/29/61
f 39/123/62 78/275/62 12/30/62 1/2/62
f 40/126/63 75/263/63 78/276/63 39/124/63
f 41/129/64 72/252/64 75/264/64 40/127/64
f 81/285/65 82/289/65 85/301/65 84/297/65
f 82/290/66 83/293/66 86/305/66 85/302/66
f 84/298/67 85/303/67 88/313/67 87/309/67
f 85/304/68 86/306/68 89/317/68 88/314/68
f 3/6/69 23/64/69 81/286/69 9/21/69
f 23/65/70 22/61/70 82/291/70 81/287/70
f 22/62/71 21/58/71 83/294/71 82/292/71
f 21/59/72 7/17/72 32/97/72 83/295/72
f 83/296/73 32/98/73 31/93/73 86/307/73
f 86/308/74 31/94/74 30/89/74 89/318/74
f 89/319/75 30/90/75 5/11/75 41/130/75
f 88/315/76 89/320/76 41/131/76 40/127/76
f 87/310/77 88/316/77 40/128/77 39/124/77
f 11/25/78 87/311/78 39/125/78 1/2/78
f 10/23/79 84/299/79 87/312/79 11/26/79
f 9/22/80 81/288/80 84/300/80 10/24/80
f 90/321/81 91/325/81 94/337/81 93/333/81
f 91/326/82 92/329/82 95/341/82 94/338/82
f 93/334/83 94/339/83 97/349/83 96/345/83
f 94/340/84 95/342/84 98/353/84 97/350/84
f 8/20/85 26/73/85 90/322/85 33/101/85
f 26/74/86 25/70/86 91/327/86 90/323/86
f 25/71/87 24/67/87 92/330/87 91/328/87
f 24/68/88 4/8/88 17/43/88 92/331/88
f 92/332/89 17/44/89 16/41/89 95/343/89
f 95/344/90 16/42/90 15/39/90 98/354/90
f 98/355/91 15/40/91 2/4/91 44/139/91
f 97/351/92 98/356/92 44/140/92 43/136/92
f 96/346/93 97/352/93 43/137/93 42/133/93
f 35/109/94 96/347/94 42/134/94 6/14/94
f 34/105/95 93/335/95 96/348/95 35/110/95
f 33/102/96 90/324/96 93/336/96 34/106/96
