# Blender 3.5.0
# www.blender.org
mtllib Well.mtl
o New_Well_
v 2.416154 0.339845 1.226431
v -0.868130 0.327066 -2.586347
v 0.732284 0.797536 2.079243
v -0.868130 0.717153 -2.371741
v 1.510509 0.846197 -0.899443
v 0.040871 0.327066 -2.586348
v 0.293537 0.383760 -2.151232
v -0.862267 0.503460 -0.515569
v 0.040871 0.717153 -2.371741
v 0.885020 0.383760 -2.151232
v 0.312953 0.797536 2.079243
v 2.196209 0.489161 0.094536
v 2.252543 0.760423 1.062820
v 1.183502 0.846197 -1.226450
v 0.732284 0.797536 1.310707
v 2.196209 0.489161 -0.859932
v 1.760797 0.846197 -1.149730
v 0.312953 0.797536 1.310707
v 1.741243 0.339845 1.901342
v -0.473061 0.503460 -0.904775
v -0.382683 0.000000 -0.923880
v 1.433790 0.846197 -1.476738
v 1.577633 0.760423 1.737731
v -0.923880 0.000000 -0.382683
v -0.923880 0.000000 0.382683
v -0.382683 0.000000 0.923880
v 0.382683 0.000000 0.923880
v 0.923880 0.000000 0.382683
v 0.923880 0.000000 -0.382683
v 0.382683 0.000000 -0.923880
v -1.098978 0.000000 -2.653168
v -2.653168 0.000000 -1.098978
v -2.653168 0.000000 1.098978
v -1.098978 0.000000 2.653168
v 1.098978 0.000000 2.653168
v 2.653168 0.000000 1.098978
v 2.653168 0.000000 -1.098978
v 1.098978 0.000000 -2.653168
v -0.923880 0.542083 -0.382683
v -0.382683 0.542083 -0.923880
v -0.923880 0.542083 0.382683
v -0.382683 0.542083 0.923880
v 0.382683 0.542083 0.923880
v 0.923880 0.542083 0.382683
v 0.923880 0.542083 -0.382683
v 0.382683 0.542083 -0.923880
v -2.228444 0.735989 -0.923052
v -0.923052 0.735989 -2.228444
v -0.923052 0.735989 2.228444
v 0.923052 0.735989 2.228444
v 2.228444 0.735989 0.923052
v 2.228444 0.735989 -0.923052
v 0.923052 0.735989 -2.228444
v 0.826069 0.735989 -1.994308
v 1.994308 0.735989 0.826069
v -0.826069 0.735989 1.994308
v -1.994308 0.735989 -0.826069
v -0.826070 0.735989 -1.994308
v 1.994308 0.735989 -0.826070
v 0.826070 0.735989 1.994308
v -0.826070 0.323281 -1.994308
v -0.579946 0.323281 -1.400113
v 1.994308 0.323281 -0.826070
v 1.400113 0.323281 -0.579946
v 0.826070 0.323281 1.994308
v -1.994308 0.323281 0.826070
v -1.400113 0.323281 0.579946
v -1.400113 0.323281 -0.579946
v -0.579946 0.323281 1.400113
v 1.400113 0.323281 0.579946
v 0.579946 0.323281 -1.400113
v 0.826069 0.323281 -1.994308
v 1.994308 0.323281 0.826069
v -0.826069 0.323281 1.994308
v -1.994308 0.323281 -0.826069
v -0.431983 0.542083 -1.042900
v 1.042900 0.542083 -0.431983
v 0.431983 0.542083 1.042900
v -1.042900 0.542083 0.431983
v 0.431983 0.542083 -1.042900
v 1.042900 0.542083 0.431983
v -0.431983 0.542083 1.042900
v -1.042900 0.542083 -0.431983
v 0.431983 0.759985 -1.042900
v 0.579946 0.759985 -1.400113
v 1.042900 0.759985 0.431983
v 1.400113 0.759985 0.579946
v -0.431983 0.759985 1.042900
v -0.579946 0.759985 1.400113
v -1.042900 0.759985 -0.431983
v -1.400113 0.759985 -0.579946
v -0.579946 0.759985 -1.400113
v 1.400113 0.759985 -0.579946
v -0.431983 0.759985 -1.042900
v 1.042900 0.759985 -0.431983
v 0.431983 0.759985 1.042900
v -1.210736 0.759985 0.769323
v -1.210736 0.607769 0.769323
v -2.113060 0.607769 1.143078
v -1.804931 0.735989 1.015446
v -1.804931 0.607769 1.015446
v -0.853523 0.759985 0.621360
v -0.853523 0.607769 0.621360
v -1.042900 0.759985 -0.333306
v -2.228444 0.735989 0.157763
v -1.994308 0.735989 0.060781
v -2.302437 0.607769 0.188412
v -1.994308 0.607769 0.060781
v -1.400113 0.759985 -0.185343
v -1.400113 0.607769 -0.185343
v -1.042900 0.607769 -0.333306
v -1.400113 0.607769 0.579946
v -1.042900 0.607769 0.431983
v -2.302437 0.607769 0.953701
v -1.994308 0.607769 0.826070
v -2.039068 0.735989 1.112429
v 2.370883 0.489161 -0.859932
v 2.653167 0.000000 -0.859932
v 2.196209 0.000000 -0.859932
v 2.653167 0.000000 0.094536
v 2.370883 0.489161 0.094536
v 2.196209 0.000000 0.094536
v 1.677565 0.290301 1.837663
v 2.352475 0.290301 1.162752
v 2.182786 0.706149 0.993063
v 1.507875 0.706149 1.667973
v -0.567276 0.735989 2.228444
v -0.567276 0.735989 1.994308
v -0.567276 0.517789 2.354362
v -0.567276 0.517789 1.994308
v 0.387192 0.517789 2.354363
v 0.387192 0.735989 2.228444
v -0.910791 0.542083 -0.564092
v -0.521585 0.542083 -0.953299
v -0.521585 0.759985 -0.953299
v -0.910791 0.759985 -0.564092
v -0.473061 0.542083 -0.904775
v -0.862267 0.542083 -0.515569
v -1.163379 0.759985 -0.816680
v -0.774173 0.759985 -1.205886
v -1.163379 0.503460 -0.816680
v -0.774173 0.503460 -1.205886
v 1.388715 0.735989 -1.431663
v 1.433790 0.735989 -1.476738
v 1.760797 0.735989 -1.149730
v 1.715722 0.735989 -1.104656
v 1.715722 0.323281 -1.104656
v 1.388715 0.323281 -1.431663
v 1.510509 0.323281 -0.899443
v 1.183502 0.323281 -1.226450
v 0.387192 0.735989 2.079243
v 0.732284 0.735989 1.994308
v 0.732284 0.735989 2.079243
v 0.312953 0.517789 1.994308
v 0.312953 0.323281 1.994308
v 0.732284 0.323281 1.994308
v 0.312953 0.759985 1.400113
v 0.312953 0.323281 1.400113
v 0.732284 0.323281 1.310707
v 0.669352 0.323281 1.310707
v 0.732284 0.323281 1.767889
v 0.669352 0.759985 1.310707
v 0.542913 0.759985 1.310707
v 0.312953 0.759985 1.310707
v 0.312953 0.517789 2.079243
v 0.387192 0.517789 2.079243
v -0.868130 0.276154 -2.493805
v -0.868130 0.661855 -2.271225
v 0.040871 0.276153 -2.493805
v 0.040871 0.661855 -2.271226
v 0.293537 0.000000 -2.362357
v 0.293537 0.000000 -2.455904
v 0.885020 0.000000 -2.455904
v 0.885020 0.000000 -2.362357
v 0.293537 0.082373 -2.605632
v 0.293537 0.210211 -2.531859
v 0.293537 0.500881 -2.364120
v 0.885020 0.082373 -2.605632
v 0.885020 0.500881 -2.364120
vn -0.0000 -1.0000 -0.0000
vn -0.0000 1.0000 -0.0000
vn -0.6124 0.4998 -0.6124
vn 1.0000 -0.0000 -0.0000
vn -0.8661 0.4998 -0.0000
vn 0.7071 -0.0000 -0.7071
vn -0.6124 0.4998 0.6124
vn -0.0000 -0.0000 -1.0000
vn -0.0000 0.4998 0.8661
vn -0.7071 -0.0000 -0.7071
vn 0.6124 0.4998 0.6124
vn -1.0000 -0.0000 -0.0000
vn 0.8661 0.4998 -0.0000
vn -0.7071 -0.0000 0.7071
vn 0.6124 0.4998 -0.6124
vn -0.0000 -0.0000 1.0000
vn 0.7071 -0.0000 0.7071
vn -0.0000 0.4998 -0.8661
vn -0.3827 -0.0000 -0.9239
vn 0.3827 -0.0000 0.9239
vn 0.6195 0.4820 0.6195
vn 0.3408 -0.8762 0.3408
vn -0.3408 0.8762 -0.3408
vn -0.0000 0.4820 -0.8762
vn -0.0000 -0.8762 -0.4820
vn -0.0000 0.8762 0.4820
vt 0.375000 0.000000
vt 0.125000 0.750000
vt 0.375000 1.000000
vt 0.375000 0.000000
vt 0.375000 1.000000
vt 0.125000 0.750000
vt 0.625000 0.000000
vt 0.625000 1.000000
vt 0.875000 0.750000
vt 0.625000 0.000000
vt 0.625000 1.000000
vt 0.875000 0.750000
vt 0.625000 0.000000
vt 0.625000 1.000000
vt 0.875000 0.750000
vt 0.375000 0.250000
vt 0.125000 0.500000
vt 0.625000 0.750000
vt 0.125000 0.750000
vt 0.375000 0.000000
vt 0.375000 1.000000
vt 0.625000 0.250000
vt 0.875000 0.500000
vt 0.625000 0.500000
vt 0.625000 0.250000
vt 0.875000 0.500000
vt 0.625000 0.000000
vt 0.625000 1.000000
vt 0.875000 0.750000
vt 0.625000 0.000000
vt 0.625000 1.000000
vt 0.875000 0.750000
vt 0.625000 0.250000
vt 0.875000 0.500000
vt 0.625000 0.750000
vt 0.625000 0.250000
vt 0.875000 0.500000
vt 0.625000 0.750000
vt 0.625000 0.500000
vt 0.375000 0.250000
vt 0.125000 0.500000
vt 0.375000 0.750000
vt 0.000000 0.000000
vt 0.625000 0.500000
vt 0.625000 0.250000
vt 0.875000 0.500000
vt 0.000000 0.000000
vt 0.000000 0.000000
vt 0.000000 0.000000
vt 0.000000 0.000000
vt 0.000000 0.000000
vt 0.000000 0.000000
vt 0.000000 0.000000
vt 0.000000 0.000000
vt 0.000000 0.000000
vt 0.000000 0.000000
vt 0.000000 0.000000
vt 0.000000 0.000000
vt 0.000000 0.000000
vt 0.000000 0.000000
vt 0.000000 0.000000
vt 0.000000 0.000000
vt 0.000000 0.000000
vt 0.000000 0.000000
vt 0.000000 0.000000
vt 0.000000 0.000000
vt 0.000000 0.000000
vt 0.000000 0.000000
vt 0.000000 0.000000
vt 0.000000 0.000000
vt 0.000000 0.000000
vt 0.000000 0.000000
vt 0.000000 0.000000
vt 0.000000 0.000000
vt 0.000000 0.000000
vt 0.000000 0.000000
vt 0.000000 0.000000
vt 0.000000 0.000000
vt 0.000000 0.000000
vt 0.000000 0.000000
vt 0.000000 0.000000
vt 0.000000 0.000000
vt 0.000000 0.000000
vt 0.000000 0.000000
vt 0.000000 0.000000
vt 0.000000 0.000000
vt 0.000000 0.000000
vt 0.000000 0.000000
vt 0.000000 0.000000
vt 0.000000 0.000000
vt 0.000000 0.000000
vt 0.000000 0.000000
vt 0.000000 0.000000
vt 0.000000 0.000000
vt 0.000000 0.000000
vt 0.000000 0.000000
vt 0.000000 0.000000
vt 0.000000 0.000000
vt 0.000000 0.000000
vt 0.000000 0.000000
vt 0.000000 0.000000
vt 0.000000 0.000000
vt 0.000000 0.000000
vt 0.000000 0.000000
vt 0.000000 0.000000
vt 0.000000 0.000000
vt 0.000000 0.000000
vt 0.000000 0.000000
vt 0.000000 0.000000
vt 0.000000 0.000000
vt 0.000000 0.000000
vt 0.000000 0.000000
vt 0.000000 0.000000
vt 0.000000 0.000000
vt 0.000000 0.000000
vt 0.000000 0.000000
vt 0.000000 0.000000
vt 0.000000 0.000000
vt 0.000000 0.000000
vt 0.000000 0.000000
vt 0.434658 0.861858
vt 0.000000 0.000000
vt 0.375000 0.861858
vt 0.263142 0.750000
vt 0.000000 0.000000
vt 0.375000 0.973937
vt 0.151063 0.750000
vt 0.425253 0.935664
vt 0.000000 0.000000
vt 0.375000 0.935664
vt 0.000000 0.000000
vt 0.189336 0.750000
vt 0.000000 0.000000
vt 0.434658 0.817487
vt 0.375000 0.817487
vt 0.000000 0.000000
vt 0.307513 0.750000
vt 0.000000 0.000000
vt 0.434658 0.454359
vt 0.000000 0.000000
vt 0.425253 0.307100
vt 0.000000 0.000000
vt 0.425253 0.336183
vt 0.375000 0.297909
vt 0.000000 0.000000
vt 0.172909 0.500000
vt 0.000000 0.000000
vt 0.375000 0.336183
vt 0.211183 0.500000
vt 0.434658 0.409989
vt 0.000000 0.000000
vt 0.000000 0.000000
vt 0.375000 0.409989
vt 0.284989 0.500000
vt 0.000000 0.000000
vt 0.375000 0.454359
vt 0.329359 0.500000
vt 0.000000 0.000000
vt 0.251381 0.685191
vt 0.000000 0.000000
vt 0.295751 0.685191
vt 0.000000 0.000000
vt 0.139301 0.685191
vt 0.000000 0.000000
vt 0.177575 0.685191
vt 0.000000 0.000000
vt 0.425253 0.964746
vt 0.000000 0.000000
vt 0.625000 0.270045
vt 0.854955 0.500000
vt 0.433283 0.302439
vt 0.000000 0.000000
vt 0.000000 0.000000
vt 0.433283 0.250000
vt 0.433283 0.947561
vt 0.000000 0.000000
vt 0.854955 0.750000
vt 0.000000 0.000000
vt 0.625000 0.979955
vt 0.000000 0.000000
vt 0.433283 0.000000
vt 0.433283 1.000000
vt 0.000000 0.000000
vt 0.375000 0.322974
vt 0.197974 0.500000
vt 0.000000 0.000000
vt 0.375000 0.927026
vt 0.197974 0.750000
vt 0.625000 0.920060
vt 0.000000 0.000000
vt 0.795060 0.750000
vt 0.795060 0.500000
vt 0.000000 0.000000
vt 0.625000 0.329940
vt 0.547070 0.415427
vt 0.000000 0.000000
vt 0.547070 0.442296
vt 0.000000 0.000000
vt 0.375000 0.400977
vt 0.000000 0.000000
vt 0.275977 0.500000
vt 0.000000 0.000000
vt 0.375000 0.442296
vt 0.317296 0.500000
vt 0.000000 0.000000
vt 0.275977 0.750000
vt 0.375000 0.849023
vt 0.000000 0.000000
vt 0.547070 0.834573
vt 0.000000 0.000000
vt 0.390379 0.037097
vt 0.000000 0.000000
vt 0.390379 0.712903
vt 0.000000 0.000000
vt 0.477143 0.712903
vt 0.000000 0.000000
vt 0.477143 0.037097
vt 0.000000 0.000000
vt 0.390379 0.750000
vt 0.000000 0.000000
vt 0.390379 0.000000
vt 0.390379 1.000000
vt 0.000000 0.000000
vt 0.477143 0.230203
vt 0.000000 0.000000
vt 0.477143 0.519797
vt 0.000000 0.000000
vt 0.375000 0.230203
vt 0.125000 0.519797
vt 0.000000 0.000000
vt 0.375000 0.519797
vt 0.000000 0.000000
vt 0.581117 0.454977
vt 0.000000 0.000000
vt 0.581117 0.500000
vt 0.000000 0.000000
vt 0.581117 0.750000
vt 0.000000 0.000000
vt 0.581117 0.795023
vt 0.000000 0.000000
vt 0.416785 0.795023
vt 0.000000 0.000000
vt 0.416785 0.454977
vt 0.416785 0.000000
vt 0.000000 0.000000
vt 0.416785 1.000000
vt 0.000000 0.000000
vt 0.416785 0.250000
vt 0.547070 0.817451
vt 0.000000 0.000000
vt 0.597972 0.205740
vt 0.000000 0.000000
vt 0.597972 0.972371
vt 0.000000 0.000000
vt 0.597972 0.000000
vt 0.597972 1.000000
vt 0.000000 0.000000
vt 0.317296 0.730555
vt 0.502154 0.277629
vt 0.000000 0.000000
vt 0.416739 0.277629
vt 0.000000 0.000000
vt 0.416739 0.972371
vt 0.000000 0.000000
vt 0.608510 0.470917
vt 0.000000 0.000000
vt 0.416739 0.470917
vt 0.000000 0.000000
vt 0.416739 0.750000
vt 0.000000 0.000000
vt 0.416739 0.712481
vt 0.000000 0.000000
vt 0.416739 0.898719
vt 0.000000 0.000000
vt 0.608510 0.712481
vt 0.000000 0.000000
vt 0.608510 0.637099
vt 0.000000 0.000000
vt 0.608510 0.500000
vt 0.307549 0.730555
vt 0.502154 0.250000
vt 0.307549 0.750000
vt 0.375000 0.817451
vt 0.502154 0.205740
vt 0.236961 0.750000
vt 0.000000 0.000000
vt 0.375000 0.888039
vt 0.625000 0.878393
vt 0.000000 0.000000
vt 0.753393 0.750000
vt 0.000000 0.000000
vt 0.375000 0.361961
vt 0.236961 0.500000
vt 0.625000 0.371608
vt 0.753392 0.500000
vt 0.000000 0.000000
vt 0.000000 0.000000
vt 0.398335 0.750000
vt 0.000000 0.000000
vt 0.375000 0.809618
vt 0.315382 0.750000
vt 0.000000 0.000000
vt 0.375000 0.440382
vt 0.315382 0.500000
vt 0.000000 0.000000
vt 0.398335 0.500000
vt 0.191077 0.750000
vt 0.000000 0.000000
vt 0.375000 0.933923
vt 0.000000 0.000000
vt 0.451365 0.931728
vt 0.000000 0.000000
vt 0.625000 0.926740
vt 0.801740 0.750000
vt 0.000000 0.000000
vt 0.375000 0.316078
vt 0.191078 0.500000
vt 0.000000 0.000000
vt 0.625000 0.323260
vt 0.801740 0.500000
s 0
f 30/53/1 171/297/1 174/305/1
f 38/61/1 172/299/1 31/54/1
f 122/180/1 29/52/1 119/173/1
f 27/50/1 34/57/1 26/49/1
f 25/48/1 32/55/1 24/47/1
f 38/61/1 29/52/1 30/53/1
f 36/59/1 27/50/1 28/51/1
f 34/57/1 25/48/1 26/49/1
f 32/55/1 21/43/1 24/47/1
f 54/77/2 48/71/2 58/81/2
f 55/78/2 52/75/2 59/82/2
f 153/254/2 50/73/2 152/252/2
f 145/236/2 52/75/2 144/234/2
f 60/83/2 51/74/2 55/78/2
f 56/79/2 116/166/2 49/72/2
f 58/81/2 47/70/2 57/80/2
f 32/55/3 48/71/3 31/54/3
f 24/47/4 41/64/4 25/48/4
f 107/145/5 47/70/5 33/56/5
f 25/48/6 42/65/6 26/49/6
f 99/125/7 33/56/7 49/72/7
f 26/49/8 43/66/8 27/50/8
f 129/200/9 34/57/9 35/58/9
f 27/50/10 44/67/10 28/51/10
f 51/74/11 124/186/11 36/59/11
f 126/193/11 50/73/11 35/58/11
f 28/51/12 45/68/12 29/52/12
f 117/168/13 52/75/13 51/74/13
f 29/52/14 46/69/14 30/53/14
f 38/61/15 52/75/15 37/60/15
f 30/53/16 40/63/16 21/43/16
f 21/43/17 39/62/17 24/47/17
f 167/286/18 48/71/18 168/289/18
f 31/54/18 169/291/18 175/308/18
f 170/296/18 53/76/18 179/318/18
f 80/103/16 94/117/16 76/99/16
f 76/99/17 135/214/17 134/212/17
f 83/106/17 136/216/17 90/113/17
f 103/136/6 82/105/6 113/160/6
f 78/101/10 86/109/10 81/104/10
f 60/83/8 156/262/8 152/252/8
f 74/97/8 130/202/8 155/260/8
f 92/115/8 71/94/8 62/85/8
f 108/147/4 66/89/4 57/80/4
f 93/116/4 70/93/4 64/87/4
f 54/77/14 148/242/14 143/232/14
f 63/86/14 146/238/14 147/240/14
f 69/92/16 157/264/16 89/112/16
f 55/78/10 65/88/10 60/83/10
f 110/152/12 68/91/12 112/158/12
f 68/91/2 61/84/2 75/98/2
f 69/92/2 66/89/2 74/97/2
f 159/268/2 65/88/2 70/93/2
f 150/247/2 64/87/2 149/245/2
f 68/91/2 66/89/2 67/90/2
f 69/92/2 155/260/2 158/266/2
f 65/88/2 161/272/2 156/262/2
f 70/93/2 63/86/2 64/87/2
f 71/94/2 61/84/2 62/85/2
f 59/82/12 73/96/12 55/78/12
f 98/122/14 67/90/14 89/112/14
f 58/81/16 72/95/16 54/77/16
f 87/110/17 160/270/17 70/93/17
f 57/80/17 61/84/17 58/81/17
f 85/108/6 64/87/6 71/94/6
f 46/69/2 76/99/2 40/63/2
f 44/67/2 77/100/2 45/68/2
f 42/65/2 78/101/2 43/66/2
f 39/62/2 79/102/2 41/64/2
f 45/68/2 80/103/2 46/69/2
f 43/66/2 81/104/2 44/67/2
f 41/64/2 82/105/2 42/65/2
f 138/220/2 39/62/2 40/63/2
f 94/117/2 140/225/2 135/214/2
f 139/223/2 90/113/2 136/216/2
f 88/111/2 97/120/2 89/112/2
f 162/274/2 86/109/2 96/119/2
f 95/118/2 85/108/2 84/107/2
f 164/278/2 96/119/2 89/112/2
f 86/109/2 93/116/2 95/118/2
f 84/107/2 92/115/2 94/117/2
f 81/104/12 95/118/12 77/100/12
f 82/105/8 96/119/8 78/101/8
f 111/155/4 83/106/4 104/138/4
f 77/100/14 84/107/14 80/103/14
f 142/230/10 62/85/10 68/91/10
f 98/123/19 102/134/19 103/135/19
f 101/130/19 116/167/19 100/128/19
f 106/142/2 47/70/2 105/140/2
f 101/131/6 56/79/6 66/89/6
f 104/138/2 91/114/2 109/151/2
f 108/148/20 105/141/20 107/144/20
f 110/153/20 104/139/20 109/150/20
f 115/165/2 107/146/2 99/127/2
f 113/161/2 110/154/2 98/124/2
f 117/169/16 119/174/16 118/171/16
f 16/36/4 122/181/4 119/174/4
f 122/182/8 121/179/8 120/175/8
f 12/29/1 117/170/1 121/177/1
f 130/203/4 127/195/4 129/199/4
f 127/196/2 56/79/2 49/72/2
f 165/280/2 130/204/2 131/206/2
f 166/283/12 132/209/12 151/249/12
f 4/10/24 6/16/24 2/4/24
f 169/292/4 9/22/4 170/294/4
f 4/11/12 167/287/12 168/288/12
f 2/6/25 169/293/25 167/285/25
f 9/23/26 168/290/26 170/295/26
f 174/305/1 173/302/1 38/61/1
f 30/53/1 21/43/1 31/54/1
f 31/54/1 172/299/1 171/297/1
f 174/305/1 38/61/1 30/53/1
f 30/53/1 31/54/1 171/297/1
f 38/61/1 173/302/1 172/299/1
f 122/180/1 120/176/1 36/59/1
f 36/59/1 28/51/1 29/52/1
f 37/60/1 118/172/1 119/173/1
f 122/180/1 36/59/1 29/52/1
f 29/52/1 37/60/1 119/173/1
f 27/50/1 35/58/1 34/57/1
f 25/48/1 33/56/1 32/55/1
f 38/61/1 37/60/1 29/52/1
f 36/59/1 35/58/1 27/50/1
f 34/57/1 33/56/1 25/48/1
f 32/55/1 31/54/1 21/43/1
f 54/77/2 53/76/2 48/71/2
f 55/78/2 51/74/2 52/75/2
f 153/254/2 151/250/2 132/208/2
f 50/73/2 60/83/2 152/252/2
f 153/254/2 132/208/2 50/73/2
f 145/236/2 146/238/2 59/82/2
f 52/75/2 53/76/2 54/77/2
f 54/77/2 143/232/2 144/234/2
f 145/236/2 59/82/2 52/75/2
f 52/75/2 54/77/2 144/234/2
f 60/83/2 50/73/2 51/74/2
f 56/79/2 100/129/2 116/166/2
f 58/81/2 48/71/2 47/70/2
f 32/55/3 47/70/3 48/71/3
f 24/47/4 39/62/4 41/64/4
f 107/145/5 105/140/5 47/70/5
f 47/70/5 32/55/5 33/56/5
f 33/56/5 114/162/5 107/145/5
f 25/48/6 41/64/6 42/65/6
f 99/125/7 114/162/7 33/56/7
f 33/56/7 34/57/7 49/72/7
f 49/72/7 116/166/7 99/125/7
f 26/49/8 42/65/8 43/66/8
f 129/200/9 127/196/9 49/72/9
f 35/58/9 50/73/9 132/208/9
f 35/58/9 132/208/9 131/205/9
f 129/200/9 49/72/9 34/57/9
f 35/58/9 131/205/9 129/200/9
f 27/50/10 43/66/10 44/67/10
f 51/74/11 125/190/11 124/186/11
f 126/193/11 125/190/11 51/74/11
f 35/58/11 36/59/11 124/186/11
f 35/58/11 124/186/11 123/183/11
f 126/193/11 51/74/11 50/73/11
f 35/58/11 123/183/11 126/193/11
f 28/51/12 44/67/12 45/68/12
f 117/168/13 118/172/13 37/60/13
f 51/74/13 36/59/13 120/176/13
f 51/74/13 120/176/13 121/178/13
f 117/168/13 37/60/13 52/75/13
f 51/74/13 121/178/13 117/168/13
f 29/52/14 45/68/14 46/69/14
f 38/61/15 53/76/15 52/75/15
f 30/53/16 46/69/16 40/63/16
f 21/43/17 40/63/17 39/62/17
f 167/286/18 31/54/18 48/71/18
f 178/315/18 38/61/18 31/54/18
f 31/54/18 167/286/18 169/291/18
f 169/291/18 176/310/18 175/308/18
f 175/308/18 178/315/18 31/54/18
f 177/312/18 176/310/18 169/291/18
f 170/296/18 168/289/18 48/71/18
f 177/312/18 169/291/18 170/296/18
f 38/61/18 178/315/18 179/318/18
f 179/318/18 177/312/18 170/296/18
f 170/296/18 48/71/18 53/76/18
f 53/76/18 38/61/18 179/318/18
f 80/103/16 84/107/16 94/117/16
f 76/99/17 94/117/17 135/214/17
f 83/106/17 133/210/17 136/216/17
f 103/136/6 102/133/6 88/111/6
f 82/105/6 79/102/6 113/160/6
f 103/136/6 88/111/6 82/105/6
f 78/101/10 96/119/10 86/109/10
f 60/83/8 65/88/8 156/262/8
f 74/97/8 56/79/8 128/198/8
f 130/202/8 154/257/8 155/260/8
f 74/97/8 128/198/8 130/202/8
f 92/115/8 85/108/8 71/94/8
f 108/147/4 115/164/4 66/89/4
f 66/89/4 75/98/4 57/80/4
f 57/80/4 106/142/4 108/147/4
f 93/116/4 87/110/4 70/93/4
f 54/77/14 72/95/14 148/242/14
f 63/86/14 59/82/14 146/238/14
f 69/92/16 158/266/16 157/264/16
f 55/78/10 73/96/10 65/88/10
f 110/152/12 109/151/12 91/114/12
f 68/91/12 67/90/12 112/158/12
f 110/152/12 91/114/12 68/91/12
f 68/91/2 62/85/2 61/84/2
f 69/92/2 67/90/2 66/89/2
f 159/268/2 161/272/2 65/88/2
f 65/88/2 73/96/2 70/93/2
f 70/93/2 160/270/2 159/268/2
f 150/247/2 148/242/2 72/95/2
f 72/95/2 71/94/2 64/87/2
f 64/87/2 63/86/2 147/240/2
f 64/87/2 147/240/2 149/245/2
f 150/247/2 72/95/2 64/87/2
f 68/91/2 75/98/2 66/89/2
f 69/92/2 74/97/2 155/260/2
f 70/93/2 73/96/2 63/86/2
f 71/94/2 72/95/2 61/84/2
f 59/82/12 63/86/12 73/96/12
f 98/122/14 112/158/14 67/90/14
f 67/90/14 69/92/14 89/112/14
f 89/112/14 97/120/14 98/122/14
f 58/81/16 61/84/16 72/95/16
f 87/110/17 162/274/17 160/270/17
f 57/80/17 75/98/17 61/84/17
f 85/108/6 93/116/6 64/87/6
f 46/69/2 80/103/2 76/99/2
f 44/67/2 81/104/2 77/100/2
f 42/65/2 82/105/2 78/101/2
f 39/62/2 83/106/2 79/102/2
f 45/68/2 77/100/2 80/103/2
f 43/66/2 78/101/2 81/104/2
f 41/64/2 79/102/2 82/105/2
f 138/220/2 133/210/2 83/106/2
f 40/63/2 76/99/2 134/212/2
f 40/63/2 134/212/2 137/218/2
f 138/220/2 83/106/2 39/62/2
f 40/63/2 137/218/2 138/220/2
f 94/117/2 92/115/2 140/225/2
f 139/223/2 91/114/2 90/113/2
f 88/111/2 102/133/2 97/120/2
f 96/119/2 163/276/2 162/274/2
f 162/274/2 87/110/2 86/109/2
f 95/118/2 93/116/2 85/108/2
f 164/278/2 163/276/2 96/119/2
f 96/119/2 88/111/2 89/112/2
f 89/112/2 157/264/2 164/278/2
f 86/109/2 87/110/2 93/116/2
f 84/107/2 85/108/2 92/115/2
f 81/104/12 86/109/12 95/118/12
f 82/105/8 88/111/8 96/119/8
f 111/155/4 113/160/4 79/102/4
f 83/106/4 90/113/4 104/138/4
f 111/155/4 79/102/4 83/106/4
f 77/100/14 95/118/14 84/107/14
f 142/230/10 140/225/10 92/115/10
f 68/91/10 91/114/10 139/223/10
f 68/91/10 139/223/10 141/227/10
f 142/230/10 92/115/10 62/85/10
f 68/91/10 141/227/10 142/230/10
f 98/123/19 97/121/19 102/134/19
f 101/130/19 99/126/19 116/167/19
f 106/142/2 57/80/2 47/70/2
f 101/131/6 100/129/6 56/79/6
f 56/79/6 74/97/6 66/89/6
f 66/89/6 115/164/6 101/131/6
f 104/138/2 90/113/2 91/114/2
f 108/148/20 106/143/20 105/141/20
f 110/153/20 111/156/20 104/139/20
f 115/165/2 108/149/2 107/146/2
f 107/146/2 114/163/2 99/127/2
f 99/127/2 101/132/2 115/165/2
f 113/161/2 111/157/2 110/154/2
f 110/154/2 112/159/2 98/124/2
f 98/124/2 103/137/2 113/161/2
f 117/169/16 16/36/16 119/174/16
f 16/36/4 12/27/4 122/181/4
f 122/182/8 12/28/8 121/179/8
f 12/29/1 16/37/1 117/170/1
f 130/203/4 128/197/4 127/195/4
f 127/196/2 128/198/2 56/79/2
f 165/280/2 154/258/2 130/204/2
f 130/204/2 129/201/2 131/206/2
f 131/206/2 166/282/2 165/280/2
f 166/283/12 131/207/12 132/209/12
f 4/10/24 9/22/24 6/16/24
f 169/292/4 6/16/4 9/22/4
f 4/11/12 2/5/12 167/287/12
f 2/6/25 6/17/25 169/293/25
f 9/23/26 4/12/26 168/290/26
f 13/30/21 19/40/21 1/1/21
f 23/45/14 123/184/14 19/40/14
f 13/31/6 124/187/6 125/189/6
f 19/41/22 124/188/22 1/2/22
f 23/46/23 125/191/23 126/192/23
f 133/211/6 141/228/6 136/217/6
f 142/231/14 134/213/14 140/226/14
f 8/21/10 137/219/10 20/42/10
f 20/42/2 141/229/2 8/19/2
f 5/13/14 150/248/14 149/244/14
f 150/248/10 22/44/10 143/233/10
f 22/44/6 145/237/6 144/235/6
f 146/239/17 17/38/17 149/246/17
f 14/34/2 17/38/2 22/44/2
f 151/251/16 11/25/16 166/284/16
f 154/259/12 11/25/12 157/265/12
f 18/39/8 15/35/8 162/275/8
f 161/273/4 15/35/4 152/253/4
f 11/26/2 15/35/2 18/39/2
f 173/303/12 10/24/12 179/319/12
f 10/24/24 171/298/24 7/18/24
f 7/18/4 172/300/4 176/311/4
f 172/301/26 178/317/26 175/307/26
f 7/18/25 179/320/25 10/24/25
f 13/30/21 23/45/21 19/40/21
f 23/45/14 126/194/14 123/184/14
f 13/31/6 1/3/6 124/187/6
f 19/41/22 123/185/22 124/188/22
f 23/46/23 13/32/23 125/191/23
f 133/211/6 138/221/6 8/20/6
f 141/228/6 139/224/6 136/217/6
f 133/211/6 8/20/6 141/228/6
f 142/231/14 20/42/14 137/219/14
f 134/213/14 135/215/14 140/226/14
f 142/231/14 137/219/14 134/213/14
f 8/21/10 138/222/10 137/219/10
f 20/42/2 142/231/2 141/229/2
f 5/13/14 14/33/14 150/248/14
f 143/233/10 148/243/10 150/248/10
f 150/248/10 14/33/10 22/44/10
f 22/44/10 144/235/10 143/233/10
f 22/44/6 17/38/6 145/237/6
f 146/239/17 145/237/17 17/38/17
f 17/38/17 5/14/17 149/246/17
f 149/246/17 147/241/17 146/239/17
f 14/34/2 5/15/2 17/38/2
f 151/251/16 153/255/16 3/7/16
f 11/25/16 165/281/16 166/284/16
f 151/251/16 3/7/16 11/25/16
f 154/259/12 165/281/12 11/25/12
f 11/25/12 18/39/12 164/279/12
f 157/265/12 158/267/12 155/261/12
f 11/25/12 164/279/12 157/265/12
f 157/265/12 155/261/12 154/259/12
f 163/277/8 164/279/8 18/39/8
f 15/35/8 159/269/8 160/271/8
f 162/275/8 163/277/8 18/39/8
f 15/35/8 160/271/8 162/275/8
f 161/273/4 159/269/4 15/35/4
f 15/35/4 3/8/4 153/256/4
f 152/253/4 156/263/4 161/273/4
f 15/35/4 153/256/4 152/253/4
f 11/26/2 3/9/2 15/35/2
f 179/319/12 178/316/12 173/303/12
f 173/303/12 174/306/12 10/24/12
f 10/24/24 174/306/24 171/298/24
f 176/311/4 177/313/4 7/18/4
f 7/18/4 171/298/4 172/300/4
f 172/300/4 175/309/4 176/311/4
f 172/301/26 173/304/26 178/317/26
f 7/18/25 177/314/25 179/320/25
